<?xml version="1.0" encoding="UTF-8" standalone="no"?>
<!-- Created with Inkscape (http://www.inkscape.org/) -->

<svg
   width="124.08958mm"
   height="93.662498mm"
   viewBox="0 0 124.08958 93.662498"
   version="1.1"
   id="svg5"
   xml:space="preserve"
   sodipodi:docname="hedge.svg"
   inkscape:version="1.2.1 (9c6d41e410, 2022-07-14, custom)"
   inkscape:export-filename="hedge.png"
   inkscape:export-xdpi="200"
   inkscape:export-ydpi="200"
   xmlns:inkscape="http://www.inkscape.org/namespaces/inkscape"
   xmlns:sodipodi="http://sodipodi.sourceforge.net/DTD/sodipodi-0.dtd"
   xmlns="http://www.w3.org/2000/svg"
   xmlns:svg="http://www.w3.org/2000/svg"><sodipodi:namedview
     id="namedview7"
     pagecolor="#ffffff"
     bordercolor="#000000"
     borderopacity="0.25"
     inkscape:showpageshadow="2"
     inkscape:pageopacity="0.0"
     inkscape:pagecheckerboard="0"
     inkscape:deskcolor="#d1d1d1"
     inkscape:document-units="mm"
     showgrid="false"
     inkscape:zoom="1.0511964"
     inkscape:cx="258.27714"
     inkscape:cy="243.53204"
     inkscape:window-width="1920"
     inkscape:window-height="1169"
     inkscape:window-x="0"
     inkscape:window-y="0"
     inkscape:window-maximized="1"
     inkscape:current-layer="layer1" /><defs
     id="defs2" /><g
     inkscape:label="Layer 1"
     inkscape:groupmode="layer"
     id="layer1"
     transform="translate(-43.475014,-59.865265)"><path
       style="fill:#000000;stroke-width:0.370813"
       d="m 100.13973,150.96615 c -1.06505,-0.6191 -1.748211,-2.71185 -1.986213,-6.08441 -0.239138,-3.38852 -1.045532,-5.30371 -2.772178,-6.58387 -0.844768,-0.62631 -1.671708,-0.74873 -5.562198,-0.82342 -2.513433,-0.0482 -5.487652,-0.25937 -6.609369,-0.46918 -1.121703,-0.2098 -3.290957,-0.58526 -4.820567,-0.83437 -4.706134,-0.76639 -11.531988,-2.57665 -14.647115,-3.88452 -1.631578,-0.68501 -4.529677,-1.68184 -6.440219,-2.21519 -3.188907,-0.89023 -3.527166,-0.92137 -4.125656,-0.37974 -1.201723,1.08754 -3.032434,1.09726 -5.143868,0.0273 -5.486446,-2.78019 -3.899939,-8.73936 2.326675,-8.73936 0.912276,0 1.772922,0.18484 1.912548,0.41076 0.37016,0.59893 2.613407,0.14566 5.628154,-1.13723 1.425786,-0.60672 3.281879,-1.2134 4.124648,-1.34817 0.842773,-0.13483 1.532311,-0.38476 1.532311,-0.55554 0,-0.17079 -0.501955,-0.88222 -1.115458,-1.58095 -1.733082,-1.97387 -2.717244,-4.51499 -2.464055,-6.36221 0.513123,-3.74362 2.864479,-8.05222 5.166682,-9.46737 3.153577,-1.938485 5.504919,-1.70337 8.009116,0.80083 1.745371,1.74537 2.510168,3.6601 2.834279,7.09576 0.129919,1.37665 0.292423,2.50299 0.361264,2.50299 0.197051,0 3.678556,-1.51425 3.830226,-1.66593 0.07484,-0.0748 -1.590407,-2.24833 -3.700531,-4.82999 -4.934088,-6.036673 -5.746352,-7.278499 -6.630452,-10.137038 -1.199058,-3.876881 -0.845668,-6.357464 0.905697,-6.357464 2.481687,0 8.967907,3.866384 12.380065,7.379661 2.154062,2.217886 2.783979,2.681782 3.054763,2.249644 0.348791,-0.556606 1.317619,-4.828121 2.328057,-10.264408 0.373233,-2.008039 1.143048,-4.218483 2.259945,-6.489233 2.526747,-5.137111 3.07137,-5.922853 4.0105,-5.785973 l 0.804474,0.117249 0.02032,6.376705 c 0.01542,4.82337 0.141523,6.494447 0.517685,6.860042 0.411999,0.400436 1.214455,-0.261744 4.67821,-3.860386 2.29951,-2.389037 5.23415,-5.893232 6.52144,-7.787071 2.78564,-4.098226 7.06522,-8.449332 8.3104,-8.449332 1.92138,0 2.17383,1.687338 0.99796,6.670354 -0.40853,1.731195 -0.70968,3.180709 -0.66923,3.221156 0.23954,0.239545 12.12244,-8.570803 14.98604,-11.111127 8.71507,-7.731242 11.87809,-6.656728 8.27744,2.811946 -0.79982,2.103308 -1.71759,4.840537 -2.03947,6.082732 -0.64047,2.471676 -0.7827,6.250032 -0.24772,6.580674 0.41765,0.258114 4.55731,-1.91149 7.01199,-3.675024 3.38904,-2.434771 4.23446,-1.411225 1.89867,2.29871 -0.86893,1.380126 -2.47164,3.71847 -3.56159,5.196323 l -1.98171,2.687009 2.57598,-1.651148 c 1.41677,-0.908143 3.62848,-2.178377 4.91489,-2.822744 1.2864,-0.644367 3.75729,-2.216176 5.49083,-3.492927 3.79227,-2.792962 5.17028,-3.52561 6.63125,-3.52561 4.24663,0 -1.69351,9.026856 -10.71584,16.284166 l -3.63171,2.921228 1.26962,1.230572 1.26961,1.230558 4.90612,-1.629369 c 3.83998,-1.275293 5.60745,-1.664896 8.13347,-1.792867 3.94023,-0.199615 5.11594,0.04401 5.11594,1.059842 0,0.894254 -1.22129,3.40919 -2.45475,5.05488 -1.10519,1.47456 -5.6884,3.81202 -9.31856,4.75251 -2.08867,0.54114 -2.6884,0.84601 -2.6884,1.36665 0,0.4828 0.28509,0.67139 1.01974,0.67455 1.81084,0.008 4.77869,0.98632 8.69092,2.86539 4.33188,2.08063 5.32481,2.94574 4.97604,4.33541 -0.38699,1.54184 -1.4873,1.86632 -6.11403,1.80295 -2.3212,-0.0318 -4.0733,0.0643 -3.89353,0.21344 0.17976,0.14917 1.1395,0.91623 2.13275,1.70456 2.09782,1.66502 2.82926,3.14935 2.82926,5.74146 0,1.6654 -0.0949,1.88273 -0.91199,2.0878 -0.50158,0.12585 -1.62792,-0.0245 -2.50297,-0.33436 -0.87507,-0.30978 -3.32321,-1.11127 -5.44031,-1.78108 l -3.8493,-1.21784 -0.89619,1.09574 c -0.777,0.95001 -1.42581,3.73476 -1.96403,6.47832 -0.0739,0.37679 0.19647,1.1113 0.028,2.26343 -0.22339,1.09733 -0.49636,3.24663 -0.6066,4.77624 -0.32434,4.50027 -0.84922,6.52689 -2.01311,7.77284 -1.66859,1.78624 -3.72038,1.36559 -4.69296,-0.9621 -0.29586,-0.70811 -0.63869,-2.65535 -0.76186,-4.32721 -0.12319,-1.67187 -0.47051,-3.54036 -0.7719,-4.1522 -0.60479,-1.22779 -1.91797,-2.78109 -2.35115,-2.78109 -0.51499,0 -1.03573,2.39135 -1.2516,5.7476 -0.31961,4.96919 -0.82367,7.03068 -2.03654,8.32907 -1.6686,1.78622 -3.72039,1.36559 -4.69298,-0.96212 -0.29586,-0.70809 -0.63894,-2.65535 -0.76241,-4.32719 -0.3236,-4.38154 -2.08616,-7.30411 -4.40502,-7.30411 -0.99975,0 -1.15946,0.56651 -1.46367,5.19139 -0.31611,4.80589 -0.82725,6.86122 -2.02521,8.14365 -1.67403,1.79206 -3.72053,1.36527 -4.70057,-0.9803 -0.30003,-0.7181 -0.64372,-2.69693 -0.76372,-4.39739 -0.34129,-4.83611 -2.21437,-7.44334 -5.01438,-6.97972 -1.62181,0.26853 -1.6603,0.36292 -1.94532,4.76997 -0.32156,4.97213 -0.82531,7.03117 -2.03772,8.32907 -1.09265,1.16967 -2.27007,1.40891 -3.47808,0.70672 z m 2.78502,-2.37822 c 0.46869,-0.80249 0.76613,-2.54446 1.0328,-6.04853 0.20597,-2.7068 0.46354,-5.06548 0.57234,-5.24154 0.10876,-0.17604 -0.14782,-0.42978 -0.57027,-0.56386 -0.44278,-0.14053 -0.71921,-0.49769 -0.65266,-0.84323 0.17727,-0.9205 4.46333,-0.97726 6.48302,-0.0859 1.78318,0.78704 3.72838,3.21907 3.97035,4.96407 0.0886,0.63876 0.34148,2.57252 0.56204,4.29727 0.40769,3.18821 1.00957,4.36978 2.02704,3.97933 1.13859,-0.43691 1.70058,-2.39552 2.0663,-7.2013 0.20035,-2.63266 0.4776,-5.08198 0.61611,-5.44296 0.21006,-0.54737 0.0739,-0.63763 -0.82062,-0.54381 -1.44871,0.15196 -2.18019,-0.30755 -1.60083,-1.00563 0.65297,-0.78678 4.62779,-0.66618 6.53164,0.1982 1.78552,0.81064 3.72765,3.247 3.96759,4.97728 0.0886,0.63875 0.34149,2.57252 0.56204,4.29726 0.4077,3.18821 1.00957,4.36977 2.02704,3.97933 1.14349,-0.43879 1.70055,-2.39517 2.07206,-7.27706 0.20353,-2.67431 0.54057,-5.18104 0.74902,-5.57052 0.62117,-1.16066 0.44285,-1.49851 -0.79094,-1.49851 h -1.1699 l 0.67117,-0.74163 c 0.83352,-0.92102 1.78263,-0.92611 3.77795,-0.0202 1.78552,0.81064 3.72765,3.247 3.96758,4.97728 0.0886,0.63875 0.34149,2.57252 0.56205,4.29726 0.40768,3.18821 1.00957,4.36978 2.02704,3.97933 1.47709,-0.56681 1.90677,-3.1525 2.54452,-15.31262 l 0.0994,-1.89353 -1.29784,0.81965 c -1.87565,1.18456 -2.78837,1.40403 -3.29588,0.79252 -0.35378,-0.42628 -0.0719,-0.72959 1.5236,-1.63953 2.19956,-1.25441 4.93685,-3.51317 5.47414,-4.5171 0.32399,-0.60536 0.035,-0.70484 -3.24908,-1.11817 -1.98257,-0.24954 -4.02185,-0.66538 -4.53172,-0.92408 -0.61947,-0.31433 -1.56487,-0.38617 -2.84954,-0.21655 -1.54612,0.20413 -2.24339,0.5496 -3.56144,1.76455 -0.90142,0.8309 -1.96588,1.61448 -2.36547,1.74132 -1.00173,0.31793 -3.98347,-0.63567 -5.69391,-1.821 l -1.41976,-0.98389 -1.41797,1.57409 c -2.0612,2.28813 -3.80485,2.9463 -6.7135,2.53413 -2.83041,-0.40108 -3.91007,-0.93869 -5.79514,-2.88571 l -1.44953,-1.49715 -1.10633,0.93092 c -1.89247,1.59241 -4.55626,2.74388 -6.34761,2.74388 -2.18152,0 -3.291759,-0.54294 -4.148874,-2.02894 l -0.701478,-1.21616 -2.595687,1.05552 c -3.193329,1.29855 -5.18846,1.38335 -6.372628,0.27089 -0.934912,-0.87832 -1.141605,-2.84575 -0.524862,-4.99619 l 0.333375,-1.16239 -1.422269,0.19077 c -5.302486,0.71121 -9.402065,-2.04834 -7.717926,-5.19516 l 0.426055,-0.7961 -1.074977,0.68307 c -0.591251,0.37568 -1.501286,1.07862 -2.022307,1.56209 -0.521035,0.48346 -1.146776,0.87903 -1.390553,0.87903 -0.828762,0 -0.44719,-1.3407 0.692285,-2.43238 l 1.135508,-1.08788 -0.238115,-2.78233 c -0.529738,-6.19022 -4.076561,-9.623112 -7.891624,-7.63814 -2.900062,1.50891 -5.746196,7.63497 -4.906851,10.56161 0.532966,1.85833 4.3291,5.87988 5.162595,5.74152 0.83685,-0.13888 0.732485,0.91822 0.03784,1.34755 -0.265001,0.16378 -1.415663,0.41411 -2.557023,0.55631 -1.141363,0.14218 -3.725008,0.88538 -5.741435,1.65156 l -3.749005,2.06721 -0.0057,1.58988 -0.08846,2.26405 1.158998,0.38147 c 0.637449,0.20982 2.116096,0.63033 3.285883,0.93448 1.169788,0.30414 3.255204,1.06459 4.634257,1.68989 3.295079,1.49405 12.066539,3.68487 15.579563,3.89126 1.531389,0.09 3.000707,0.34314 3.265183,0.56263 0.644886,0.53522 5.736558,1.01808 8.548735,0.81072 1.736205,-0.12795 2.660465,0.008 3.960593,0.58318 1.930747,0.85406 3.864577,3.21735 4.115935,5.02999 0.08857,0.63875 0.339485,2.55871 0.557573,4.26656 0.218086,1.70786 0.593016,3.34196 0.833176,3.63134 0.63994,0.77106 1.48756,0.45991 2.23541,-0.82059 z M 64.669123,125.8 c -1.04292,-1.04293 -0.929358,-1.74051 0.519139,-3.189 1.323124,-1.32313 2.995376,-1.67687 3.856456,-0.81579 0.630072,0.63008 0.551993,2.94535 -0.132274,3.92227 -0.770008,1.09935 -3.179641,1.1462 -4.243325,0.0825 z m 1.285372,-12.26096 c -1.574187,-3.04414 0.01832,-7.22825 2.456588,-6.45437 0.76699,0.24344 2.19105,2.37372 2.19105,3.27765 0,1.00204 -1.053825,0.68167 -1.668659,-0.50729 -1.100884,-2.12888 -2.422356,-0.75994 -1.88385,1.95152 0.4183,2.10621 0.410869,2.60501 -0.04116,2.76247 -0.242968,0.0846 -0.717252,-0.37885 -1.053962,-1.02998 z"
       id="path302"
       sodipodi:nodetypes="csscscssscssscscssscscsssscsssccsccssccssscssccscsscccsssssscscscssccscsscsssssssssssssssssscccccssccssscssscssssscssccsccsscssssscscssscssscscscsscccsscccscsccccccscccccssccccsssccssssscss" /><path
       style="fill:#000000;stroke:#000000;stroke-width:0.217567;stroke-linecap:round;stroke-linejoin:round"
       d="m 100.89472,149.46467 c -0.13346,-0.14247 -0.29544,-0.39838 -0.35995,-0.56868 -0.20645,-0.54497 -0.560203,-2.61446 -0.87202,-5.10144 -0.173331,-1.38244 -0.405381,-2.71351 -0.541917,-3.10849 -0.5149,-1.48956 -2.084567,-3.29685 -3.534632,-4.06972 -0.380167,-0.20263 -1.096039,-0.47414 -1.590828,-0.60336 -0.806654,-0.21067 -1.107811,-0.22724 -2.91438,-0.16037 -3.088664,0.11433 -6.997547,-0.24345 -8.129276,-0.74406 -0.675002,-0.29859 -1.428461,-0.43908 -3.414257,-0.63661 -1.865032,-0.18553 -3.135961,-0.38873 -5.15022,-0.82344 -3.811112,-0.82251 -7.901331,-2.00184 -10.131381,-2.92117 -2.567305,-1.05837 -3.483932,-1.38965 -5.123256,-1.8516 -0.886495,-0.24981 -2.227857,-0.64555 -2.980802,-0.87944 l -1.368992,-0.42524 0.07326,-1.27129 c 0.0403,-0.69921 0.02977,-1.63176 0.07379,-2.20628 l 0.03856,-0.50329 2.350901,-1.33014 c 2.749586,-1.55572 4.894879,-1.71682 6.471429,-2.01946 0.6674,-0.12812 1.594865,-0.30565 2.061034,-0.3945 0.46617,-0.0889 0.9713,-0.24261 1.122511,-0.34169 0.579183,-0.3795 0.17589,-1.44126 -0.547439,-1.44126 -0.914012,0 -3.251709,-2.64486 -4.313078,-4.8798 -0.677778,-1.42721 -0.65952,-2.66904 0.07285,-4.95501 0.914957,-2.85588 2.852149,-5.52108 4.656956,-6.40707 0.734677,-0.36066 0.892016,-0.39431 1.843794,-0.39431 0.943436,0 1.112349,0.0353 1.809435,0.37817 0.541475,0.26633 0.970021,0.5977 1.449043,1.12047 1.521452,1.66039 2.264162,3.8487 2.567948,7.56613 l 0.138637,1.69649 -0.912405,0.95149 c -0.501822,0.52331 -1.001861,1.14064 -1.1112,1.37183 -0.38757,0.81952 -0.174218,1.46964 0.43234,1.3174 0.158803,-0.0399 0.690512,-0.40606 1.181571,-0.81378 0.958498,-0.79584 2.970421,-2.2332 2.887908,-2.06319 -0.578612,1.19219 -0.705379,2.15386 -0.39207,2.97425 0.245928,0.64395 1.197234,1.54655 2.122038,2.01339 1.519835,0.76721 4.221496,1.07163 6.34203,0.71461 0.407877,-0.0687 0.755944,-0.1105 0.773481,-0.093 0.01754,0.0175 -0.06992,0.36596 -0.194361,0.77428 -0.731673,2.40084 -0.473509,4.62386 0.635188,5.46951 1.408938,1.07465 3.398224,0.82474 7.684712,-0.9654 l 1.121042,-0.46817 0.475803,0.81468 c 0.666451,1.14112 1.141315,1.62375 1.95844,1.99045 0.927995,0.41646 2.633183,0.52581 3.823553,0.24518 1.67753,-0.39547 3.60134,-1.40202 5.18777,-2.71426 l 0.87788,-0.72616 1.52463,1.4845 c 1.02227,0.99536 1.75357,1.60552 2.21945,1.85181 1.90365,1.00636 5.53318,1.38269 7.18121,0.74459 1.19978,-0.46455 2.26784,-1.33066 3.89863,-3.1615 l 0.59429,-0.66719 0.89598,0.62479 c 1.7558,1.22435 3.71589,2.00778 5.29367,2.1158 0.91384,0.0626 0.96187,0.053 1.51231,-0.30018 0.31267,-0.20064 1.07954,-0.802 1.70416,-1.33635 0.62461,-0.53435 1.38017,-1.10502 1.67903,-1.26814 1.22159,-0.66681 3.39463,-0.82885 4.7613,-0.35505 1.01661,0.35244 2.0698,0.56095 4.98706,0.98734 1.40521,0.20539 2.45819,0.41549 2.62275,0.52331 0.27162,0.17797 0.27246,0.18443 0.0699,0.53291 -0.51901,0.89293 -2.85758,2.8079 -5.30178,4.34142 -0.74277,0.46603 -1.44116,0.92738 -1.55197,1.02523 -0.26682,0.2356 -0.25555,0.63324 0.0252,0.88727 0.51826,0.46902 1.8382,0.0564 3.72608,-1.16489 l 0.78903,-0.51042 -0.0698,0.95442 c -0.0384,0.52494 -0.12198,1.91288 -0.18574,3.08433 -0.48004,8.81966 -0.97363,11.94286 -2.01719,12.76372 -0.44556,0.35048 -0.71906,0.40257 -1.03313,0.19679 -0.7023,-0.46017 -0.9545,-1.43134 -1.54535,-5.95075 -0.41846,-3.20082 -0.61511,-3.7528 -1.88495,-5.29093 -0.82338,-0.99734 -1.82895,-1.73773 -2.94432,-2.16786 -1.74679,-0.67364 -2.34105,-0.63123 -3.28851,0.23469 -0.88036,0.80461 -0.84995,0.90511 0.27392,0.90511 0.50139,0 0.99357,0.0314 1.09373,0.0699 0.24362,0.0935 0.22957,0.49195 -0.0416,1.17989 -0.28595,0.72547 -0.51145,2.28257 -0.81107,5.60042 -0.46108,5.10588 -0.95434,6.84705 -2.07071,7.30947 -0.29309,0.12141 -0.39166,0.11452 -0.63407,-0.0443 -0.68521,-0.44898 -1.00593,-1.66665 -1.54962,-5.8836 -0.34209,-2.6533 -0.37426,-2.79971 -0.80958,-3.68414 -0.82554,-1.67724 -2.35986,-3.19182 -3.78648,-3.73775 -1.05232,-0.4027 -2.5674,-0.60875 -4.10299,-0.558 -1.69134,0.0559 -2.28085,0.27265 -2.33783,0.85959 -0.0559,0.57603 0.27557,0.73062 1.56669,0.73062 h 1.07726 l -0.0688,0.3166 c -0.1847,0.85005 -0.31765,1.9607 -0.58913,4.92178 -0.51588,5.62665 -0.95649,7.33554 -2.00313,7.76907 -1.15754,0.47947 -1.58934,-0.57579 -2.24419,-5.48445 -0.24032,-1.80147 -0.49264,-3.2506 -0.62801,-3.60686 -0.50792,-1.33675 -2.0201,-3.11903 -3.26569,-3.84899 -1.45248,-0.85121 -5.28407,-1.1429 -6.61754,-0.50379 -0.25518,0.12231 -0.31697,0.22927 -0.31697,0.54873 0,0.39545 0.0963,0.4986 0.9178,0.98274 0.18472,0.10887 0.18595,0.21095 0.0193,1.61181 -0.0978,0.82257 -0.26087,2.50584 -0.36233,3.7406 -0.37646,4.58177 -0.67876,5.90753 -1.5541,6.81568 -0.61548,0.63855 -1.06155,0.72773 -1.46826,0.29356 z M 68.241373,126.29526 c 0.712499,-0.35505 1.020545,-0.86136 1.205514,-1.98139 0.197509,-1.19596 0.06451,-2.02792 -0.406313,-2.54168 -0.336644,-0.36734 -0.450621,-0.41612 -1.078366,-0.46153 -0.980733,-0.0709 -1.972425,0.3968 -2.94345,1.3883 -1.203109,1.22849 -1.368871,1.99393 -0.626763,2.89424 0.544158,0.66016 1.338781,0.98701 2.402887,0.98839 0.698046,7.9e-4 0.98347,-0.0556 1.446491,-0.28633 z m -1.015178,-11.82415 c 0.188136,-0.18814 0.173589,-1.11559 -0.03456,-2.20334 -0.32844,-1.7164 -0.170906,-2.99271 0.407603,-3.30232 0.33336,-0.17841 0.718931,0.0958 1.230767,0.87521 0.46084,0.70178 0.998914,1.19959 1.29661,1.19959 0.124185,0 0.309073,-0.1271 0.410864,-0.28246 0.168412,-0.25703 0.169068,-0.33736 0.0073,-0.89225 -0.353166,-1.21128 -1.503338,-2.65123 -2.286046,-2.86199 -1.01344,-0.27289 -2.121604,0.49198 -2.621828,1.80962 -0.311703,0.82105 -0.426673,2.37361 -0.241651,3.26325 0.252289,1.21307 1.037582,2.53284 1.507102,2.53284 0.102132,0 0.247864,-0.0622 0.323849,-0.13815 z"
       id="path373"
       sodipodi:nodetypes="ssssssssssssscsscsssssssssssscsssssssssssscsssscsssscssssssssssssscsssssssssssssssssssscsssssssssssssssssssscscssssscsssscc" /><path
       style="fill:#000000;stroke:#000000;stroke-width:0.00991367;stroke-linecap:round;stroke-linejoin:round"
       d="m 77.236262,112.9051 c -0.01138,-0.038 -0.04089,-0.0639 -0.0826,-0.0726 l -0.01929,-0.004 0.117258,-0.0744 c 0.06449,-0.0409 0.118187,-0.0735 0.119322,-0.0724 0.0019,0.002 -0.08351,0.165 -0.117258,0.22445 l -0.01122,0.0197 z"
       id="path375" /><path
       style="fill:#000000;stroke:#000000;stroke-width:0.0102447;stroke-linecap:round;stroke-linejoin:round"
       d="m 68.711866,101.28166 c 0.01267,-0.001 0.03341,-0.001 0.04608,0 0.01267,0.001 0.0023,0.002 -0.02304,0.002 -0.02534,0 -0.03571,-10e-4 -0.02304,-0.002 z"
       id="path446" /><path
       style="fill:#000000;stroke:#000000;stroke-width:0.00198995;stroke-linecap:round;stroke-linejoin:round"
       d="m 69.35868,101.33396 c -0.01234,-0.002 -0.114293,-0.007 -0.172168,-0.009 -0.139444,-0.005 -0.224377,-0.006 -0.501236,-0.006 -0.249634,0 -0.32053,7.9e-4 -0.436475,0.004 -0.02751,7.9e-4 -0.05215,0.002 -0.05476,0.001 l -0.0047,-1.2e-4 0.0053,-8e-4 c 0.0029,-5.2e-4 0.02232,-0.003 0.04317,-0.006 0.143494,-0.0182 0.280825,-0.0284 0.432016,-0.0318 0.0293,-8e-4 0.03093,-5.3e-4 0.03302,0.001 0.002,0.002 0.0043,0.002 0.03199,0.002 0.02786,0 0.02993,-1.3e-4 0.03202,-0.002 0.0021,-0.002 0.0039,-0.002 0.04881,-0.001 0.164778,0.002 0.328034,0.0156 0.494645,0.0397 0.05209,0.008 0.06259,0.009 0.05581,0.009 -0.0026,-2e-5 -0.0059,-2e-4 -0.0074,-2.6e-4 z"
       id="path550" /><path
       style="fill:#000000;stroke:#000000;stroke-width:0.00198995;stroke-linecap:round;stroke-linejoin:round"
       d="m 70.279544,101.82038 c -0.01622,-0.008 -0.114732,-0.0536 -0.164272,-0.0753 -0.314002,-0.13731 -0.524921,-0.18463 -0.897696,-0.2014 -0.135967,-0.006 -0.257307,-0.008 -0.532827,-0.008 -0.344987,0 -0.495954,0.004 -0.655502,0.0153 -0.04894,0.004 -0.124452,0.0109 -0.141894,0.0137 l -0.004,5.2e-4 v -0.42761 -0.42762 h 1.202018 1.202015 v 0.55652 c 0,0.44454 -2.64e-4,0.55651 -0.0013,0.55647 -7.93e-4,-3e-5 -0.0037,-10e-4 -0.0066,-0.003 z m -0.897171,-0.48528 c -0.0075,-10e-4 -0.01464,-0.002 -0.0158,-0.002 l -0.0021,1e-5 0.0021,7.9e-4 c 0.0017,8e-4 0.0013,0.001 -0.0021,0.001 -0.0041,2.2e-4 0.0205,0.003 0.02791,0.003 0.002,4e-5 -0.0025,-0.001 -0.01,-0.002 z m -0.02921,-10e-4 c -10e-4,-2.6e-4 -0.0029,-2.7e-4 -0.0042,-2e-5 -0.0013,2.5e-4 -4.77e-4,5.3e-4 0.0018,5.3e-4 0.0023,1e-5 0.0034,-2e-4 0.0024,-5.3e-4 z m -0.01421,-0.001 c -0.0013,-2.5e-4 -0.0037,-2.6e-4 -0.0053,-2e-5 -0.0016,2.5e-4 -5.29e-4,5.3e-4 0.0024,5.3e-4 0.0029,1e-5 0.0042,-1.9e-4 0.0029,-5.3e-4 z m -0.01686,-0.001 c -0.0013,-2.5e-4 -0.0034,-2.5e-4 -0.0047,0 -0.0013,2.5e-4 -2.37e-4,5.3e-4 0.0024,5.3e-4 0.0026,0 0.0037,-2e-4 0.0024,-5.3e-4 z m 0.04107,5e-5 c -7.14e-4,-2.7e-4 -0.0019,-2.7e-4 -0.0026,0 -7.14e-4,2.6e-4 -1.31e-4,5.3e-4 0.0013,5.3e-4 0.0015,0 0.002,-2.4e-4 0.0013,-5.3e-4 z m -0.05897,-0.001 c -0.0013,-2.5e-4 -0.0034,-2.5e-4 -0.0047,0 -0.0013,2.5e-4 -2.37e-4,5.3e-4 0.0024,5.3e-4 0.0026,0 0.0037,-2.1e-4 0.0024,-5.3e-4 z m 0.0516,4e-5 c -7.14e-4,-2.6e-4 -0.0019,-2.6e-4 -0.0026,0 -7.14e-4,2.7e-4 -1.31e-4,5.3e-4 0.0013,5.3e-4 0.0015,0 0.002,-2.4e-4 0.0013,-5.3e-4 z m -0.07001,-0.001 c -10e-4,-2.6e-4 -0.0029,-2.6e-4 -0.0042,-2e-5 -0.0013,2.6e-4 -4.77e-4,5.3e-4 0.0018,5.3e-4 0.0023,1e-5 0.0034,-1.9e-4 0.0024,-5.3e-4 z m 0.0637,3e-5 c -7.14e-4,-2.6e-4 -0.0019,-2.6e-4 -0.0026,0 -7.15e-4,2.7e-4 -1.32e-4,5.3e-4 0.0013,5.3e-4 0.0015,0 0.002,-2.4e-4 0.0013,-5.3e-4 z m -0.08476,-10e-4 c -0.001,-2.6e-4 -0.0029,-2.6e-4 -0.0042,-2e-5 -0.0013,2.6e-4 -4.76e-4,5.3e-4 0.0018,5.3e-4 0.0023,1e-5 0.0034,-1.9e-4 0.0024,-5.3e-4 z m 0.07738,3e-5 c -7.15e-4,-2.7e-4 -0.0019,-2.7e-4 -0.0026,0 -7.14e-4,2.6e-4 -1.31e-4,5.3e-4 0.0013,5.3e-4 0.0015,0 0.002,-2.4e-4 0.0013,-5.3e-4 z m -0.09793,-0.001 c -0.0013,-2.5e-4 -0.0034,-2.5e-4 -0.0047,0 -0.0013,2.5e-4 -2.37e-4,5.3e-4 0.0024,5.3e-4 0.0026,0 0.0037,-2.1e-4 0.0024,-5.3e-4 z m 0.09163,5e-5 c -7.15e-4,-2.6e-4 -0.0021,-2.6e-4 -0.0032,-4e-5 -0.001,2.7e-4 -4.5e-4,5.3e-4 0.0013,5.3e-4 0.0017,2e-5 0.0026,-1.9e-4 0.0019,-5.3e-4 z m -0.113746,-0.001 c -0.0013,-2.6e-4 -0.0034,-2.6e-4 -0.0047,0 -0.0013,2.5e-4 -2.36e-4,5.2e-4 0.0024,5.2e-4 0.0026,0 0.0037,-2e-4 0.0024,-5.2e-4 z m 0.106375,5e-5 c -7.15e-4,-2.7e-4 -0.0021,-2.7e-4 -0.0032,-4e-5 -0.001,2.6e-4 -4.5e-4,5.3e-4 0.0013,5.3e-4 0.0017,2e-5 0.0026,-2e-4 0.0019,-5.3e-4 z m -1.127637,-0.002 0.01063,-1.6e-4 -0.01421,-8e-4 c -0.01024,-5.3e-4 -0.01642,-2.6e-4 -0.02211,8e-4 l -0.0079,10e-4 0.01148,-5.3e-4 c 0.0063,-2.6e-4 0.01627,-5.3e-4 0.02211,-7.9e-4 z m 0.995463,5.3e-4 c -0.0016,-2.4e-4 -0.0042,-2.4e-4 -0.0058,0 -0.0016,2.4e-4 -2.91e-4,5.3e-4 0.0029,5.3e-4 0.0032,0 0.0045,-2e-4 0.0029,-5.3e-4 z m 0.125309,3e-5 c -0.001,-2.7e-4 -0.0027,-2.7e-4 -0.0037,0 -0.001,2.6e-4 -1.84e-4,5.3e-4 0.0019,5.3e-4 0.002,0 0.0029,-2.2e-4 0.0019,-5.3e-4 z m -0.152161,-10e-4 c -0.0019,-2.3e-4 -0.005,-2.3e-4 -0.0068,0 -0.0019,2.3e-4 -3.43e-4,5.3e-4 0.0034,5.3e-4 0.0038,0 0.0053,-1.9e-4 0.0034,-5.3e-4 z m 0.14479,4e-5 c -10e-4,-2.7e-4 -0.0027,-2.7e-4 -0.0037,0 -0.001,2.6e-4 -1.84e-4,5.3e-4 0.0019,5.3e-4 0.002,0 0.0029,-2.2e-4 0.0019,-5.3e-4 z m -1.071971,-0.001 c -0.0022,-2.3e-4 -0.0057,-2.3e-4 -0.0079,0 -0.0022,2.3e-4 -3.97e-4,5.3e-4 0.004,5.3e-4 0.0043,0 0.0061,-1.9e-4 0.0039,-5.3e-4 z m 0.895591,-1e-5 c -0.0025,-2.2e-4 -0.0065,-2.2e-4 -0.009,0 -0.0025,2.3e-4 -4.5e-4,5.3e-4 0.0045,5.3e-4 0.0049,0 0.0069,-1.8e-4 0.0045,-5.3e-4 z m 0.169009,5e-5 c -0.001,-2.7e-4 -0.0027,-2.7e-4 -0.0037,0 -10e-4,2.6e-4 -1.84e-4,5.3e-4 0.0019,5.3e-4 0.002,0 0.0029,-2.2e-4 0.0019,-5.3e-4 z m -1.113565,-10e-4 c -7.14e-4,-2.6e-4 -0.0019,-2.6e-4 -0.0026,0 -7.14e-4,2.7e-4 -1.31e-4,5.3e-4 0.0013,5.3e-4 0.0015,0 0.002,-2.4e-4 0.0013,-5.3e-4 z m 0.0874,-7e-5 c -0.0025,-2.2e-4 -0.0065,-2.2e-4 -0.009,0 -0.0025,2.2e-4 -4.5e-4,5.3e-4 0.0045,5.3e-4 0.0049,0 0.0069,-1.9e-4 0.0045,-5.3e-4 z m 0.822967,0 c -0.0027,-2.2e-4 -0.0075,-2.2e-4 -0.01053,-1e-5 -0.0031,2.2e-4 -8.21e-4,2.7e-4 0.005,2.7e-4 0.0058,0 0.0083,-1.8e-4 0.0056,-2.7e-4 z m 0.195826,4e-5 c -0.001,-2.6e-4 -0.0027,-2.6e-4 -0.0037,0 -0.001,2.7e-4 -1.84e-4,5.3e-4 0.0019,5.3e-4 0.002,0 0.0029,-2.1e-4 0.0019,-5.3e-4 z m -1.09775,-10e-4 c -7.14e-4,-2.7e-4 -0.0021,-2.7e-4 -0.0032,-4e-5 -0.001,2.6e-4 -4.5e-4,5.3e-4 0.0013,5.3e-4 0.0017,2e-5 0.0026,-2e-4 0.0019,-5.3e-4 z m 0.124763,-9e-5 c -0.0033,-2.1e-4 -0.0088,-2.1e-4 -0.01211,0 -0.0033,2.1e-4 -6.09e-4,2.6e-4 0.0061,2.6e-4 0.0067,0 0.0094,-1.7e-4 0.0061,-2.6e-4 z m 0.734479,-1e-5 c -0.0042,-1.9e-4 -0.01107,-1.9e-4 -0.01527,0 -0.0042,2e-4 -7.68e-4,2.7e-4 0.0076,2.7e-4 0.0084,0 0.01183,-1.7e-4 0.0076,-2.7e-4 z m 0.231137,6e-5 c -10e-4,-2.7e-4 -0.0027,-2.7e-4 -0.0037,0 -0.001,2.6e-4 -1.84e-4,5.3e-4 0.0019,5.3e-4 0.002,0 0.0029,-2.2e-4 0.0019,-5.3e-4 z m -1.083028,-0.001 c -7.14e-4,-2.6e-4 -0.0019,-2.6e-4 -0.0026,0 -7.14e-4,2.7e-4 -1.32e-4,5.3e-4 0.0013,5.3e-4 0.0015,0 0.002,-2.4e-4 0.0013,-5.3e-4 z m 0.176431,-8e-5 c -0.0045,-2e-4 -0.01204,-2e-4 -0.01685,-1e-5 -0.0048,2e-4 -0.0012,2.7e-4 0.0081,2.7e-4 0.0093,0 0.0132,-1.6e-4 0.0087,-2.7e-4 z m 0.618543,-1e-5 c -0.0054,-1.9e-4 -0.01391,-1.9e-4 -0.01896,1e-5 -0.005,1.9e-4 -6.35e-4,2.6e-4 0.0098,2.6e-4 0.01042,0 0.01455,-1.6e-4 0.0092,-2.6e-4 z m 0.280682,6e-5 c -0.001,-2.6e-4 -0.0027,-2.6e-4 -0.0037,0 -10e-4,2.7e-4 -1.85e-4,5.3e-4 0.0019,5.3e-4 0.002,0 0.0029,-2.1e-4 0.0019,-5.3e-4 z m -1.067212,-0.001 c -7.14e-4,-2.7e-4 -0.0021,-2.7e-4 -0.0032,-4e-5 -0.001,2.6e-4 -4.49e-4,5.3e-4 0.0013,5.3e-4 0.0017,2e-5 0.0026,-2e-4 0.0019,-5.3e-4 z m 0.264339,-1e-4 c -0.0047,-1.9e-4 -0.01281,-1.9e-4 -0.0179,0 -0.0051,1.9e-4 -0.0012,2.7e-4 0.0086,2.7e-4 0.0098,0 0.01402,-1.6e-4 0.0093,-2.7e-4 z m 0.423788,0 c -0.0045,-2e-4 -0.01183,-2e-4 -0.01632,0 -0.0045,2e-4 -8.21e-4,2.7e-4 0.0082,2.7e-4 0.009,0 0.01265,-1.6e-4 0.0082,-2.7e-4 z m 0.371208,1e-4 c -7.14e-4,-2.7e-4 -0.0021,-2.7e-4 -0.0032,-4e-5 -0.001,2.6e-4 -4.5e-4,5.3e-4 0.0013,5.3e-4 0.0017,2e-5 0.0026,-2e-4 0.0019,-5.3e-4 z m -1.05091,-0.001 c -7.15e-4,-2.7e-4 -0.0021,-2.7e-4 -0.0032,-4e-5 -0.001,2.6e-4 -4.5e-4,5.3e-4 0.0013,5.3e-4 0.0017,2e-5 0.0026,-2e-4 0.0019,-5.3e-4 z m 1.042486,0 c -7.15e-4,-2.7e-4 -0.0021,-2.7e-4 -0.0032,-4e-5 -0.001,2.6e-4 -4.5e-4,5.3e-4 0.0013,5.3e-4 0.0017,2e-5 0.0026,-2e-4 0.0019,-5.3e-4 z m -1.034609,-10e-4 c -0.001,-2.7e-4 -0.0027,-2.7e-4 -0.0037,0 -10e-4,2.6e-4 -1.85e-4,5.3e-4 0.0019,5.3e-4 0.002,0 0.0029,-2.2e-4 0.0019,-5.3e-4 z m 1.027238,3e-5 c -7.15e-4,-2.6e-4 -0.0021,-2.6e-4 -0.0032,-4e-5 -0.001,2.7e-4 -4.49e-4,5.3e-4 0.0013,5.3e-4 0.0017,2e-5 0.0026,-1.9e-4 0.0019,-5.3e-4 z m -1.018267,-0.001 c -7.14e-4,-2.7e-4 -0.0021,-2.7e-4 -0.0032,-4e-5 -0.001,2.6e-4 -4.5e-4,5.2e-4 0.0013,5.2e-4 0.0017,3e-5 0.0026,-1.9e-4 0.0019,-5.2e-4 z m 1.009843,0 c -7.15e-4,-2.7e-4 -0.0021,-2.7e-4 -0.0032,-4e-5 -0.001,2.6e-4 -4.49e-4,5.2e-4 0.0013,5.2e-4 0.0017,3e-5 0.0026,-1.9e-4 0.0019,-5.2e-4 z m -1.001419,-10e-4 c -7.14e-4,-2.7e-4 -0.0021,-2.7e-4 -0.0032,-4e-5 -0.001,2.6e-4 -4.5e-4,5.3e-4 0.0013,5.3e-4 0.0017,2e-5 0.0026,-2e-4 0.0019,-5.3e-4 z m 0.993501,-4e-5 c -0.001,-2.6e-4 -0.0027,-2.6e-4 -0.0037,0 -10e-4,2.7e-4 -1.84e-4,5.3e-4 0.0019,5.3e-4 0.002,0 0.0029,-2.2e-4 0.0019,-5.3e-4 z m -0.985077,-0.001 c -7.14e-4,-2.6e-4 -0.0021,-2.6e-4 -0.0032,-4e-5 -10e-4,2.7e-4 -4.5e-4,5.3e-4 0.0013,5.3e-4 0.0017,3e-5 0.0026,-1.9e-4 0.0019,-5.3e-4 z m 0.976653,-3e-5 c -0.001,-2.6e-4 -0.0027,-2.6e-4 -0.0037,0 -0.001,2.6e-4 -1.84e-4,5.3e-4 0.0019,5.3e-4 0.002,0 0.0029,-2.2e-4 0.0019,-5.3e-4 z m -0.968229,-0.001 c -7.14e-4,-2.6e-4 -0.0021,-2.6e-4 -0.0032,-4e-5 -0.001,2.7e-4 -4.5e-4,5.3e-4 0.0013,5.3e-4 0.0017,2e-5 0.0026,-1.9e-4 0.0019,-5.3e-4 z m 0.959298,0 c -7.14e-4,-2.6e-4 -0.0021,-2.6e-4 -0.0032,-4e-5 -0.001,2.7e-4 -4.5e-4,5.3e-4 0.0013,5.3e-4 0.0017,2e-5 0.0026,-1.9e-4 0.0019,-5.3e-4 z m -0.950367,-0.001 c -10e-4,-2.6e-4 -0.0027,-2.6e-4 -0.0037,0 -0.001,2.7e-4 -1.84e-4,5.3e-4 0.0019,5.3e-4 0.002,0 0.0029,-2.1e-4 0.0019,-5.3e-4 z m 0.941943,4e-5 c -7.14e-4,-2.7e-4 -0.0021,-2.7e-4 -0.0032,-4e-5 -0.001,2.6e-4 -4.5e-4,5.3e-4 0.0013,5.3e-4 0.0017,2e-5 0.0026,-2e-4 0.0019,-5.3e-4 z m -0.932972,-10e-4 c -7.15e-4,-2.7e-4 -0.0021,-2.7e-4 -0.0032,-4e-5 -0.001,2.6e-4 -4.49e-4,5.3e-4 0.0013,5.3e-4 0.0017,2e-5 0.0026,-2e-4 0.0019,-5.3e-4 z m 0.924001,-4e-5 c -0.001,-2.6e-4 -0.0027,-2.6e-4 -0.0037,0 -10e-4,2.7e-4 -1.84e-4,5.3e-4 0.0019,5.3e-4 0.002,0 0.0029,-2.1e-4 0.0019,-5.3e-4 z m -0.914524,-0.001 c -7.15e-4,-2.7e-4 -0.0021,-2.7e-4 -0.0032,-4e-5 -10e-4,2.6e-4 -4.5e-4,5.3e-4 0.0013,5.3e-4 0.0017,2e-5 0.0026,-2e-4 0.0019,-5.3e-4 z m 0.9061,-4e-5 c -10e-4,-2.6e-4 -0.0027,-2.6e-4 -0.0037,0 -0.001,2.7e-4 -1.85e-4,5.3e-4 0.0019,5.3e-4 0.002,0 0.0029,-2.2e-4 0.0019,-5.3e-4 z m -0.896623,-0.001 c -7.15e-4,-2.6e-4 -0.0021,-2.6e-4 -0.0032,-4e-5 -0.001,2.7e-4 -4.5e-4,5.3e-4 0.0013,5.3e-4 0.0017,3e-5 0.0026,-1.9e-4 0.0019,-5.3e-4 z m 0.887146,-3e-5 c -10e-4,-2.7e-4 -0.0027,-2.7e-4 -0.0037,0 -0.001,2.6e-4 -1.84e-4,5.3e-4 0.0019,5.3e-4 0.002,0 0.0029,-2.2e-4 0.0019,-5.3e-4 z m -0.878215,-0.001 c -10e-4,-2.6e-4 -0.0027,-2.6e-4 -0.0037,0 -0.001,2.7e-4 -1.84e-4,5.3e-4 0.0019,5.3e-4 0.002,0 0.0029,-2.2e-4 0.0019,-5.3e-4 z m 0.868738,0 c -0.001,-2.6e-4 -0.0027,-2.6e-4 -0.0037,0 -10e-4,2.7e-4 -1.84e-4,5.3e-4 0.0019,5.3e-4 0.002,0 0.0029,-2.2e-4 0.0019,-5.3e-4 z m -0.858715,-0.001 c -7.14e-4,-2.6e-4 -0.0021,-2.6e-4 -0.0032,-4e-5 -10e-4,2.7e-4 -4.5e-4,5.3e-4 0.0013,5.3e-4 0.0017,3e-5 0.0026,-1.9e-4 0.0019,-5.3e-4 z m 0.849238,-3e-5 c -0.001,-2.7e-4 -0.0027,-2.7e-4 -0.0037,0 -0.001,2.6e-4 -1.84e-4,5.3e-4 0.0019,5.3e-4 0.002,0 0.0029,-2.2e-4 0.0019,-5.3e-4 z m -0.838708,-0.001 c -7.14e-4,-2.6e-4 -0.0021,-2.6e-4 -0.0032,-4e-5 -10e-4,2.6e-4 -4.49e-4,5.3e-4 0.0013,5.3e-4 0.0017,2e-5 0.0026,-2e-4 0.0019,-5.3e-4 z m 0.828724,0 c -7.14e-4,-2.6e-4 -0.0021,-2.6e-4 -0.0032,-4e-5 -0.001,2.6e-4 -4.5e-4,5.3e-4 0.0013,5.3e-4 0.0017,2e-5 0.0026,-2e-4 0.0019,-5.3e-4 z m -0.819246,-10e-4 c -7.15e-4,-2.6e-4 -0.0021,-2.6e-4 -0.0032,-4e-5 -10e-4,2.7e-4 -4.49e-4,5.3e-4 0.0013,5.3e-4 0.0017,3e-5 0.0026,-1.9e-4 0.0019,-5.3e-4 z m 0.809222,-3e-5 c -10e-4,-2.7e-4 -0.0027,-2.7e-4 -0.0037,0 -0.001,2.6e-4 -1.85e-4,5.3e-4 0.0019,5.3e-4 0.002,0 0.0029,-2.2e-4 0.0019,-5.3e-4 z m -0.798186,-10e-4 c -10e-4,-2.7e-4 -0.0027,-2.7e-4 -0.0037,0 -0.001,2.6e-4 -1.84e-4,5.3e-4 0.0019,5.3e-4 0.002,0 0.0029,-2.2e-4 0.0019,-5.3e-4 z m 0.787656,0 c -0.001,-2.7e-4 -0.0027,-2.7e-4 -0.0037,0 -10e-4,2.6e-4 -1.85e-4,5.3e-4 0.0019,5.3e-4 0.002,0 0.0029,-2.2e-4 0.0019,-5.3e-4 z m -0.777126,-0.001 c -10e-4,-2.6e-4 -0.0027,-2.6e-4 -0.0037,0 -0.001,2.7e-4 -1.85e-4,5.3e-4 0.0019,5.3e-4 0.002,0 0.0029,-2.2e-4 0.0019,-5.3e-4 z m 0.766596,0 c -0.001,-2.6e-4 -0.0027,-2.6e-4 -0.0037,0 -10e-4,2.7e-4 -1.84e-4,5.3e-4 0.0019,5.3e-4 0.002,0 0.0029,-2.2e-4 0.0019,-5.3e-4 z m -0.755013,-0.001 c -0.001,-2.6e-4 -0.0027,-2.6e-4 -0.0037,0 -0.001,2.7e-4 -1.84e-4,5.3e-4 0.0019,5.3e-4 0.002,0 0.0029,-2.2e-4 0.0019,-5.3e-4 z m 0.744483,0 c -0.001,-2.6e-4 -0.0027,-2.6e-4 -0.0037,0 -0.001,2.7e-4 -1.84e-4,5.3e-4 0.0019,5.3e-4 0.002,0 0.0029,-2.2e-4 0.0019,-5.3e-4 z M 68.38859,101.3 c -10e-4,-2.6e-4 -0.0027,-2.6e-4 -0.0037,0 -0.001,2.7e-4 -1.84e-4,5.3e-4 0.0019,5.3e-4 0.002,0 0.0029,-2.1e-4 0.0019,-5.3e-4 z m 0.721316,0 c -10e-4,-2.6e-4 -0.0027,-2.6e-4 -0.0037,0 -0.001,2.7e-4 -1.84e-4,5.3e-4 0.0019,5.3e-4 0.002,0 0.0029,-2.1e-4 0.0019,-5.3e-4 z m -0.709733,-10e-4 c -10e-4,-2.7e-4 -0.0027,-2.7e-4 -0.0037,0 -0.001,2.6e-4 -1.84e-4,5.2e-4 0.0019,5.2e-4 0.002,0 0.0029,-2.1e-4 0.0019,-5.2e-4 z m 0.69815,0 c -10e-4,-2.7e-4 -0.0027,-2.7e-4 -0.0037,0 -0.001,2.6e-4 -1.85e-4,5.2e-4 0.0019,5.2e-4 0.002,0 0.0029,-2.1e-4 0.0019,-5.2e-4 z m -0.685514,-0.001 c -10e-4,-2.7e-4 -0.0027,-2.7e-4 -0.0037,0 -0.001,2.6e-4 -1.84e-4,5.3e-4 0.0019,5.3e-4 0.002,0 0.0029,-2.2e-4 0.0019,-5.3e-4 z m 0.673943,0 c -0.001,-2.6e-4 -0.0029,-2.6e-4 -0.0042,-2e-5 -0.0013,2.5e-4 -4.77e-4,5.3e-4 0.0018,5.3e-4 0.0023,1e-5 0.0034,-2e-4 0.0024,-5.3e-4 z m -0.661307,-0.001 c -10e-4,-2.6e-4 -0.0027,-2.6e-4 -0.0037,0 -0.001,2.7e-4 -1.85e-4,5.3e-4 0.0019,5.3e-4 0.002,0 0.0029,-2.2e-4 0.0019,-5.3e-4 z m 0.648658,0 c -10e-4,-2.6e-4 -0.0027,-2.6e-4 -0.0037,0 -0.001,2.7e-4 -1.84e-4,5.3e-4 0.0019,5.3e-4 0.002,0 0.0029,-2.2e-4 0.0019,-5.3e-4 z m -0.634956,-10e-4 c -0.001,-2.6e-4 -0.0029,-2.6e-4 -0.0042,-2e-5 -0.0013,2.5e-4 -4.77e-4,5.3e-4 0.0018,5.3e-4 0.0023,1e-5 0.0034,-1.9e-4 0.0024,-5.3e-4 z m 0.621267,0 c -10e-4,-2.6e-4 -0.0027,-2.6e-4 -0.0037,0 -0.001,2.7e-4 -1.84e-4,5.3e-4 0.0019,5.3e-4 0.002,0 0.0029,-2.2e-4 0.0019,-5.3e-4 z m -0.607578,-0.001 c -0.001,-2.6e-4 -0.0029,-2.6e-4 -0.0042,-2e-5 -0.0013,2.5e-4 -4.77e-4,5.3e-4 0.0018,5.3e-4 0.0023,1e-5 0.0034,-2e-4 0.0024,-5.3e-4 z m 0.593889,0 c -10e-4,-2.6e-4 -0.0027,-2.6e-4 -0.0037,0 -0.001,2.6e-4 -1.84e-4,5.3e-4 0.0019,5.3e-4 0.002,0 0.0029,-2.2e-4 0.0019,-5.3e-4 z m -0.578633,-0.001 c -0.0013,-2.5e-4 -0.0034,-2.5e-4 -0.0047,0 -0.0013,2.5e-4 -2.37e-4,5.3e-4 0.0024,5.3e-4 0.0026,0 0.0037,-2.1e-4 0.0024,-5.3e-4 z m 0.564944,2e-5 c -10e-4,-2.7e-4 -0.0027,-2.7e-4 -0.0037,0 -0.001,2.6e-4 -1.85e-4,5.3e-4 0.0019,5.3e-4 0.002,0 0.0029,-2.2e-4 0.0019,-5.3e-4 z m -0.550201,-0.001 c -0.0013,-2.5e-4 -0.0034,-2.5e-4 -0.0047,0 -0.0013,2.5e-4 -2.37e-4,5.3e-4 0.0024,5.3e-4 0.0026,0 0.0037,-2.1e-4 0.0024,-5.3e-4 z m 0.534405,1e-5 c -0.001,-2.6e-4 -0.0027,-2.6e-4 -0.0037,0 -0.001,2.7e-4 -1.85e-4,5.3e-4 0.0019,5.3e-4 0.002,0 0.0029,-2.1e-4 0.0019,-5.3e-4 z m -0.517543,-0.001 c -0.0013,-2.5e-4 -0.0037,-2.6e-4 -0.0053,-2e-5 -0.0016,2.4e-4 -5.29e-4,5.3e-4 0.0024,5.3e-4 0.0029,1e-5 0.0042,-1.9e-4 0.0029,-5.3e-4 z m 0.501748,1e-5 c -0.001,-2.6e-4 -0.0027,-2.6e-4 -0.0037,0 -10e-4,2.7e-4 -1.84e-4,5.3e-4 0.0019,5.3e-4 0.002,0 0.0029,-2.2e-4 0.0019,-5.3e-4 z m -0.483846,-0.001 c -0.0013,-2.4e-4 -0.0037,-2.5e-4 -0.0053,-10e-6 -0.0016,2.4e-4 -5.29e-4,5.3e-4 0.0024,5.3e-4 0.0029,10e-6 0.0042,-1.9e-4 0.0029,-5.3e-4 z m 0.467524,0 c -0.0013,-2.5e-4 -0.0034,-2.5e-4 -0.0047,0 -0.0013,2.5e-4 -2.37e-4,5.3e-4 0.0024,5.3e-4 0.0026,0 0.0037,-2.1e-4 0.0024,-5.3e-4 z m -0.448039,-10e-4 c -0.0016,-2.4e-4 -0.0044,-2.4e-4 -0.0063,-1e-5 -0.0019,2.4e-4 -6.09e-4,5.3e-4 0.0029,5.3e-4 0.0035,1e-5 0.005,-1.8e-4 0.0034,-5.3e-4 z m 0.429085,10e-6 c -0.0013,-2.5e-4 -0.0034,-2.5e-4 -0.0047,0 -0.0013,2.5e-4 -2.37e-4,5.3e-4 0.0024,5.3e-4 0.0026,0 0.0037,-2e-4 0.0024,-5.3e-4 z m -0.409097,-10e-4 c -0.0016,-2.5e-4 -0.0042,-2.5e-4 -0.0058,0 -0.0016,2.4e-4 -2.91e-4,5.2e-4 0.0029,5.2e-4 0.0032,0 0.0045,-1.9e-4 0.0029,-5.2e-4 z m 0.390157,1e-5 c -0.0013,-2.5e-4 -0.0037,-2.6e-4 -0.0053,-1e-5 -0.0016,2.4e-4 -5.29e-4,5.2e-4 0.0024,5.2e-4 0.0029,1e-5 0.0042,-1.9e-4 0.0029,-5.2e-4 z m -0.367014,-0.001 c -0.0022,-2.3e-4 -0.0055,-2.2e-4 -0.0074,1e-5 -0.0019,2.3e-4 -8.2e-5,5.3e-4 0.004,5.3e-4 0.0041,-1e-5 0.0056,-2e-4 0.0034,-5.3e-4 z m 0.129018,7e-5 c -7.14e-4,-2.6e-4 -0.0019,-2.6e-4 -0.0026,0 -7.14e-4,2.7e-4 -1.31e-4,5.3e-4 0.0013,5.3e-4 0.0015,0 0.002,-2.4e-4 0.0013,-5.3e-4 z m 0.0537,0 c -7.14e-4,-2.6e-4 -0.0019,-2.6e-4 -0.0026,0 -7.15e-4,2.7e-4 -1.32e-4,5.3e-4 0.0013,5.3e-4 0.0015,0 0.002,-2.4e-4 0.0013,-5.3e-4 z m 0.160585,-6e-5 c -0.0016,-2.4e-4 -0.0042,-2.4e-4 -0.0058,0 -0.0016,2.5e-4 -2.91e-4,5.3e-4 0.0029,5.3e-4 0.0032,0 0.0045,-1.9e-4 0.0029,-5.3e-4 z m -0.315905,-0.001 c -0.0022,-2.3e-4 -0.0057,-2.3e-4 -0.0079,0 -0.0022,2.2e-4 -3.97e-4,5.2e-4 0.0039,5.2e-4 0.0043,0 0.0061,-1.8e-4 0.0039,-5.2e-4 z m 0.09609,-8e-4 c -9.53e-4,-0.001 -0.0032,-0.002 -0.0083,-0.001 l -0.007,1.7e-4 0.007,5.2e-4 c 0.0039,2.7e-4 0.0074,10e-4 0.0078,10e-4 0.0014,0.001 0.0018,7.9e-4 4.23e-4,-8e-4 z m 0.193468,8e-4 c -0.0022,-2.3e-4 -0.0055,-2.3e-4 -0.0074,0 -0.0019,2.4e-4 -8.2e-5,5.3e-4 0.004,5.3e-4 0.0041,0 0.0056,-1.9e-4 0.0034,-5.3e-4 z m -0.256885,-0.001 c -0.0021,-2.3e-4 -0.0059,-2.3e-4 -0.0084,-10e-6 -0.0025,2.2e-4 -7.14e-4,5.3e-4 0.0039,5.3e-4 0.0046,0 0.0067,-1.8e-4 0.0045,-5.3e-4 z m 0.142919,-8e-4 c 0.0017,-1.8e-4 -0.0012,-5.3e-4 -0.0066,-5.3e-4 -0.0054,-9e-5 -0.0097,1.9e-4 -0.0097,5.3e-4 -2e-6,8e-4 0.0088,5.3e-4 0.01632,-1.2e-4 z m 0.08243,8e-4 c -0.0027,-2.2e-4 -0.0075,-2.2e-4 -0.01053,-10e-6 -0.0031,2.2e-4 -8.2e-4,2.7e-4 0.005,2.7e-4 0.0058,0 0.0083,-1.8e-4 0.0056,-2.7e-4 z m -0.182733,-10e-4 c -0.0025,-2.2e-4 -0.0065,-2.2e-4 -0.009,0 -0.0025,2.2e-4 -4.5e-4,5.3e-4 0.0045,5.3e-4 0.0049,0 0.0069,-1.8e-4 0.0045,-5.3e-4 z m 0.136946,-1e-5 c -0.0053,-2e-4 -0.01433,-2e-4 -0.02001,-1e-5 -0.0057,1.9e-4 -0.0013,2.7e-4 0.0097,2.7e-4 0.011,0 0.01565,-1.6e-4 0.01032,-2.7e-4 z"
       id="path552" /><path
       style="fill:#000000;stroke:#000000;stroke-width:0.0103553;stroke-linecap:round;stroke-linejoin:round"
       d="m 146.64386,124.24642 c -0.003,-0.004 -0.0334,-0.0268 -0.0664,-0.0503 -0.033,-0.0234 -0.059,-0.0437 -0.0577,-0.045 0.008,-0.008 0.13455,0.0844 0.13455,0.0975 0,0.007 -0.003,0.007 -0.0105,-0.002 z"
       id="path554" /><path
       style="fill:#000000;stroke:#000000;stroke-width:0.00195312;stroke-linecap:round;stroke-linejoin:round"
       d="m 146.50387,124.14892 c -0.0504,-0.0344 -0.0906,-0.0528 -0.1769,-0.0812 -0.11795,-0.0389 -0.31272,-0.0876 -0.54657,-0.13693 -0.0449,-0.009 -0.0414,-0.009 -0.0386,-0.009 0.003,-1.5e-4 0.0977,0.0186 0.15437,0.0305 0.28386,0.0595 0.48104,0.11914 0.61013,0.18458 0.0133,0.007 0.0141,0.007 0.0119,0.008 -0.003,0.002 -0.005,0.006 -0.003,0.009 7.9e-4,0.001 7.9e-4,0.002 5.3e-4,0.002 -5.3e-4,-4e-5 -0.006,-0.003 -0.0116,-0.007 z"
       id="path556" /><path
       style="fill:#000000;stroke:#000000;stroke-width:0.00195312;stroke-linecap:round;stroke-linejoin:round"
       d="m 146.67104,124.2758 c -0.0114,-0.0119 -0.0158,-0.017 -0.0147,-0.0174 7.9e-4,-2.7e-4 0.002,-0.002 0.003,-0.004 l 0.001,-0.003 0.008,0.0107 c 0.008,0.0103 0.0199,0.0298 0.0192,0.0304 -1.8e-4,1.7e-4 -0.008,-0.007 -0.0166,-0.0165 z"
       id="path558" /><path
       style="fill:#ffffff;stroke:#000000;stroke-width:0.166725;stroke-linecap:round;stroke-linejoin:round"
       d="m 101.04666,149.37444 c -0.0945,-0.0945 -0.23051,-0.28537 -0.30231,-0.42422 -0.16743,-0.32378 -0.51735,-2.14263 -0.759448,-3.94762 -0.311735,-2.32414 -0.622959,-4.11044 -0.795084,-4.56343 -0.419073,-1.10292 -1.696215,-2.69521 -2.784824,-3.47203 -0.68611,-0.4896 -1.542791,-0.88252 -2.404864,-1.103 -0.582512,-0.14898 -0.991278,-0.16941 -3.40491,-0.17022 -3.906279,-0.001 -5.971691,-0.20538 -7.607861,-0.75174 -0.889359,-0.29699 -1.319188,-0.3689 -4.486936,-0.75073 -2.553041,-0.30773 -6.380787,-1.14701 -9.837111,-2.1569 -2.092775,-0.61149 -3.26874,-1.01938 -5.437471,-1.88604 -1.796654,-0.71796 -2.834555,-1.06194 -6.296482,-2.08675 l -1.985067,-0.58763 0.08823,-1.8959 0.08823,-1.8959 1.411603,-0.799 c 2.335544,-1.32198 3.621714,-1.81107 5.866977,-2.23106 4.617166,-0.86366 4.788833,-0.91417 4.951377,-1.45669 0.08493,-0.28346 0.07492,-0.38615 -0.06555,-0.67275 -0.172311,-0.35155 -0.313235,-0.44633 -1.042031,-0.70084 -0.914729,-0.31944 -2.808507,-2.47727 -3.743857,-4.26586 -0.74568,-1.4259 -0.871583,-2.31254 -0.545793,-3.84362 0.486094,-2.28444 1.714977,-4.73256 3.174824,-6.32473 0.631613,-0.68887 1.172613,-1.10378 1.956322,-1.50037 0.536952,-0.27173 0.612953,-0.28562 1.578699,-0.28854 0.956967,-0.003 1.047159,0.0125 1.588054,0.2715 1.84554,0.88368 3.151243,2.93372 3.745984,5.88146 0.139972,0.69374 0.340442,2.32964 0.447632,3.65282 l 0.05846,0.72166 -0.846469,0.89427 c -0.986618,1.04234 -1.274611,1.49167 -1.346816,2.10134 -0.04724,0.39886 -0.02886,0.46634 0.185386,0.68059 0.190325,0.19032 0.290999,0.22718 0.504076,0.18457 0.304715,-0.0609 0.450381,-0.15857 1.833041,-1.22853 1.212181,-0.93803 1.769525,-1.32727 1.823379,-1.27341 0.02204,0.022 -0.02045,0.2724 -0.09443,0.55638 -0.17254,0.66243 -0.170347,1.20826 0.0072,1.80869 0.198951,0.67257 1.291764,1.75452 2.24033,2.21805 1.517909,0.74175 4.029805,1.05382 6.167072,0.76619 0.398844,-0.0537 0.739767,-0.083 0.757613,-0.0652 0.01783,0.0178 -0.068,0.40915 -0.190759,0.86957 -0.266295,0.99873 -0.371425,2.68518 -0.214429,3.43976 0.227807,1.09489 0.737137,1.79583 1.596684,2.19733 0.388075,0.18127 0.654346,0.2335 1.323917,0.25967 1.398931,0.0547 2.711923,-0.27602 5.452036,-1.37313 0.790784,-0.31662 1.450644,-0.56098 1.466355,-0.54304 0.01572,0.0179 0.249793,0.39232 0.520179,0.83193 1.096195,1.78225 2.185908,2.30751 4.604172,2.21926 0.97662,-0.0356 1.26764,-0.0822 1.9599,-0.3135 1.54162,-0.51509 3.33013,-1.53547 4.7011,-2.68205 l 0.57346,-0.4796 1.23516,1.18837 c 1.46434,1.40888 2.0527,1.87616 2.80638,2.22885 0.64209,0.30047 1.92199,0.6434 2.91871,0.78203 1.00011,0.13911 2.81493,0.11753 3.48958,-0.0415 1.26095,-0.29721 2.5907,-1.24532 4.16805,-2.97183 l 0.85474,-0.93557 0.42452,0.3056 c 1.8852,1.3571 4.02824,2.2342 5.81259,2.37898 0.67995,0.0552 0.7737,0.0421 1.20428,-0.16862 0.25682,-0.12565 1.00262,-0.66833 1.65735,-1.20595 2.0619,-1.69313 2.62686,-1.97957 4.14595,-2.10203 1.01724,-0.082 1.80868,0.005 2.92233,0.32061 1.0788,0.3059 1.65939,0.41807 4.41741,0.8534 1.90519,0.30072 2.89439,0.51744 2.89439,0.63413 0,0.0292 -0.14522,0.24356 -0.32272,0.4763 -0.68392,0.89684 -2.43803,2.30037 -4.89813,3.9192 -0.93766,0.61702 -1.75446,1.18469 -1.81512,1.26149 -0.18761,0.23753 -0.13564,0.75711 0.0976,0.97627 0.31631,0.29715 0.74319,0.32643 1.48303,0.10171 0.74724,-0.22697 1.06331,-0.37973 2.13588,-1.03228 0.43068,-0.26203 0.79509,-0.46436 0.80982,-0.44964 0.0147,0.0147 -0.0689,1.59449 -0.18588,3.51058 -0.59027,9.67077 -0.99914,12.1463 -2.12921,12.8914 -0.33394,0.22018 -0.57418,0.20686 -0.84814,-0.047 -0.48711,-0.45143 -0.70477,-1.34432 -1.25078,-5.13096 -0.43111,-2.98978 -0.57376,-3.65049 -0.95124,-4.40603 -0.31128,-0.62302 -1.20258,-1.79183 -1.75263,-2.29834 -1.55285,-1.42989 -3.86397,-2.2328 -4.97379,-1.72795 -0.42043,0.19126 -1.33492,1.00561 -1.41595,1.2609 -0.0953,0.30032 0.10325,0.38098 1.07021,0.43468 0.50869,0.0283 0.96877,0.0952 1.0224,0.14887 0.0712,0.0712 0.0358,0.29545 -0.13102,0.83089 -0.32813,1.05306 -0.47366,1.98601 -0.76809,4.92407 -0.44718,4.46224 -0.70759,5.9879 -1.19956,7.02783 -0.36491,0.77136 -0.97396,1.15638 -1.39395,0.88119 -0.54158,-0.35486 -0.89288,-1.73545 -1.4176,-5.57105 -0.36442,-2.66392 -0.47008,-3.13317 -0.89355,-3.96838 -0.46283,-0.91286 -0.99012,-1.60577 -1.819,-2.39037 -1.5449,-1.46238 -3.11382,-1.94509 -6.09059,-1.87389 -1.30748,0.0313 -1.5781,0.0624 -1.93198,0.22224 -0.45554,0.20576 -0.60307,0.40636 -0.60307,0.82005 0,0.63716 0.33518,0.79276 1.70937,0.79353 l 0.87122,5.3e-4 -0.0589,0.28673 c -0.11553,0.5623 -0.31553,2.268 -0.58188,4.96267 -0.42157,4.26509 -0.70283,5.83871 -1.21016,6.77085 -0.25898,0.47579 -0.66492,0.77237 -1.05722,0.77237 -0.68251,0 -1.01748,-1.07055 -1.6149,-5.16117 -0.57052,-3.90642 -0.68668,-4.29662 -1.66863,-5.6051 -0.63876,-0.85118 -1.84762,-1.97364 -2.45665,-2.28108 -1.5511,-0.78299 -5.04999,-1.07127 -6.41306,-0.52839 -0.47469,0.18907 -0.53382,0.24152 -0.60298,0.53495 -0.10519,0.44632 0.0605,0.75832 0.57693,1.08627 0.49183,0.31235 0.49158,0.31049 0.29102,2.11741 -0.07,0.63081 -0.20972,2.07991 -0.31045,3.22022 -0.39803,4.5059 -0.64772,5.70499 -1.39132,6.68169 -0.25884,0.33998 -0.71944,0.641 -0.9808,0.641 -0.10345,0 -0.26538,-0.0773 -0.35985,-0.17175 z M 68.270966,126.45637 c 0.815639,-0.42765 1.195682,-1.10633 1.360004,-2.42868 0.207099,-1.66661 -0.324894,-2.70878 -1.454803,-2.84996 -0.638031,-0.0797 -1.499056,0.1256 -2.150744,0.51285 -0.661166,0.39288 -1.720818,1.48361 -2.004356,2.06314 -0.18733,0.38289 -0.224011,0.56113 -0.189465,0.92066 0.07374,0.76739 0.766207,1.53654 1.673685,1.85901 0.668989,0.23773 2.249321,0.19372 2.765679,-0.077 z m -1.015449,-11.8327 c 0.28882,-0.23388 0.313982,-0.87408 0.09292,-2.36408 -0.206412,-1.39126 -0.222792,-1.83472 -0.08919,-2.41474 0.09223,-0.40041 0.374827,-0.79403 0.57007,-0.79403 0.122095,0 0.624141,0.5458 1.165863,1.26747 0.403951,0.53814 0.824802,0.84908 1.149915,0.84961 0.306149,5.3e-4 0.635624,-0.37767 0.635624,-0.72957 0,-1.00973 -1.109789,-2.81259 -2.082121,-3.38242 -0.788717,-0.46221 -1.80496,-0.23582 -2.503449,0.5577 -0.718952,0.81677 -1.007058,1.78011 -1.010316,3.37817 -0.0027,1.33585 0.281705,2.25585 1.003675,3.24644 0.393131,0.5394 0.727654,0.66024 1.067011,0.38545 z"
       id="path814" /><path
       style="fill:#000000;stroke:#000000;stroke-width:0.00741648;stroke-linecap:round;stroke-linejoin:round"
       d="m 128.12956,199.61592 c -0.001,-0.006 -0.007,-0.011 -0.0131,-0.0132 -0.0107,-0.004 -0.0106,-0.004 0.0161,-0.0206 0.0147,-0.009 0.0274,-0.0162 0.0282,-0.0154 7.5e-4,7.6e-4 -0.005,0.0143 -0.0137,0.03 -0.0132,0.0251 -0.0154,0.0275 -0.0174,0.0192 z"
       id="path480"
       transform="matrix(0.26458333,0,0,0.26458333,43.475014,59.865265)" /><path
       style="fill:#000000;stroke:#000000;stroke-width:0.007486;stroke-linecap:round;stroke-linejoin:round"
       d="m 161.01802,221.6914 c -0.0195,-0.0489 -0.0817,-0.13403 -0.11789,-0.1613 -0.0151,-0.0114 -0.0237,-0.0201 -0.0202,-0.0207 0.0168,-0.003 0.21548,-0.0289 0.21976,-0.0289 0.003,0 -0.006,0.0394 -0.0297,0.12101 -0.0191,0.0666 -0.0354,0.1218 -0.0364,0.12277 -9.7e-4,9.7e-4 -0.008,-0.0138 -0.0156,-0.0329 z"
       id="path482"
       transform="matrix(0.26458333,0,0,0.26458333,43.475014,59.865265)" /></g></svg>
