<?xml version="1.0" encoding="UTF-8" standalone="no"?>
<!-- Created with Inkscape (http://www.inkscape.org/) -->

<svg
   xmlns:dc="http://purl.org/dc/elements/1.1/"
   xmlns:cc="http://creativecommons.org/ns#"
   xmlns:rdf="http://www.w3.org/1999/02/22-rdf-syntax-ns#"
   xmlns:svg="http://www.w3.org/2000/svg"
   xmlns="http://www.w3.org/2000/svg"
   xmlns:sodipodi="http://sodipodi.sourceforge.net/DTD/sodipodi-0.dtd"
   xmlns:inkscape="http://www.inkscape.org/namespaces/inkscape"
   width="793.70081"
   height="1122.5197"
   viewBox="0 0 210 297"
   version="1.1"
   id="svg246"
   inkscape:version="0.92.3 (2405546, 2018-03-11)"
   sodipodi:docname="OceanPattern.svg">
  <defs
     id="defs240" />
  <sodipodi:namedview
     id="base"
     pagecolor="#ffffff"
     bordercolor="#666666"
     borderopacity="1.0"
     inkscape:pageopacity="0.0"
     inkscape:pageshadow="2"
     inkscape:zoom="0.24748737"
     inkscape:cx="596.22016"
     inkscape:cy="505.55205"
     inkscape:document-units="px"
     inkscape:current-layer="layer1"
     showgrid="false"
     units="px"
     showborder="false"
     inkscape:window-width="1366"
     inkscape:window-height="713"
     inkscape:window-x="0"
     inkscape:window-y="27"
     inkscape:window-maximized="1" />
  <metadata
     id="metadata243">
    <rdf:RDF>
      <cc:Work
         rdf:about="">
        <dc:format>image/svg+xml</dc:format>
        <dc:type
           rdf:resource="http://purl.org/dc/dcmitype/StillImage" />
        <dc:title></dc:title>
      </cc:Work>
    </rdf:RDF>
  </metadata>
  <g
     inkscape:label="Layer 1"
     inkscape:groupmode="layer"
     id="layer1">
    <path
       inkscape:connector-curvature="0"
       id="path196"
       style="fill:#5296cc;fill-opacity:0.90098039;stroke:none;stroke-width:0.27003184;stroke-opacity:1"
       d="m 304.7473,271.96742 c -11.61363,8.79829 -23.40219,16.28632 -34.14003,25.03257 h 28.10112 c 0.94528,-8.75284 2.81446,-17.97561 6.03891,-25.03257 z m 0.0527,8.18658 -1.74511,16.84599 h 1.60094 L 304.8,295.60783 Z M 165.04317,264.29553 c -0.0737,0 -0.14678,0.006 -0.2186,0.0185 -0.14363,0.0251 -0.28321,0.075 -0.41702,0.14677 -0.20072,0.10763 -0.38861,0.26493 -0.55914,0.46355 -0.17053,0.19859 -0.32357,0.43868 -0.45424,0.71157 -0.0436,0.091 -0.0846,0.18571 -0.12299,0.28371 -0.0768,0.19598 -0.1428,0.40495 -0.19689,0.62529 -0.0811,0.33052 -0.1352,0.68583 -0.15709,1.0573 -0.007,0.1238 -0.0109,0.24958 -0.0109,0.37672 0,0.38216 0.0342,0.75414 0.0987,1.10588 0.0322,0.17586 0.0721,0.34671 0.11886,0.51106 0.0468,0.16436 0.10046,0.32258 0.16071,0.47284 0.0301,0.0751 0.0618,0.14801 0.0951,0.2191 0.0333,0.0711 0.068,0.14047 0.10438,0.20725 0.0363,0.0668 0.0744,0.13115 0.11369,0.19325 0.0785,0.12422 0.1623,0.2385 0.25167,0.34211 0.0447,0.0518 0.0908,0.10112 0.13797,0.14727 0.0472,0.0462 0.0956,0.0895 0.14521,0.12972 0.0496,0.0402 0.10061,0.0772 0.15245,0.1111 v 0.26561 c -9.6667,0.49663 -17.81347,6.84784 -20.95686,15.567 l -0.69195,-0.22479 c -0.4061,-0.84621 -1.44745,-1.62875 -2.72025,-2.0438 -1.935,-0.6283 -3.79897,-0.22751 -4.16357,0.894 -0.3654,1.12279 0.90791,2.54238 2.84221,3.17088 1.4541,0.47098 2.92576,0.37216 3.69796,-0.24858 l 0.493,0.16021 c -0.55064,1.99506 -0.84595,4.09455 -0.84595,6.26215 0,0.59825 0.0226,1.1915 0.0667,1.77869 h 3.72793 c -0.0518,-0.58626 -0.0832,-1.17866 -0.0832,-1.77869 0,-1.76979 0.23269,-3.48334 0.66456,-5.11495 l 2.48305,0.80719 c -0.1109,1.01312 0.16679,1.79306 0.70229,1.96734 0.3515,0.11316 0.77609,-0.0477 1.17719,-0.44958 0.089,0.56076 0.33858,0.94184 0.68988,1.05677 0.3928,0.1261 0.87388,-0.0901 1.30948,-0.59015 0.058,0.66111 0.32082,1.11879 0.71262,1.24645 0.5349,0.17275 1.21801,-0.29395 1.72341,-1.17875 l 1.63555,0.50695 c -0.12059,0.5684 -0.185,1.15334 -0.185,1.74873 0,0.60585 0.0665,1.20092 0.19121,1.77869 h 3.04736 c -0.21231,-0.57594 -0.33125,-1.17639 -0.33125,-1.77869 0,-0.29458 0.0286,-0.58846 0.0822,-0.87952 l 4.35374,1.34874 -0.95136,1.30947 h 2.06706 l 0.23461,-0.33226 0.24133,0.33226 h 2.08876 l -0.99012,-1.32445 4.81675,-1.56477 c 0.0846,0.36589 0.13022,0.73789 0.13022,1.11053 0,0.6023 -0.11942,1.20275 -0.33176,1.77869 h 3.04736 c 0.12476,-0.57777 0.19069,-1.17284 0.19069,-1.77869 0,-0.68969 -0.0876,-1.36485 -0.24805,-2.01694 l 1.11518,-0.36224 c 0.5081,0.95911 1.22918,1.48367 1.79059,1.30225 0.39209,-0.12769 0.65371,-0.58539 0.71261,-1.24645 0.4367,0.50011 0.91678,0.71641 1.30948,0.59015 0.3514,-0.11546 0.59965,-0.49652 0.68885,-1.05677 0.4024,0.40148 0.82664,0.56369 1.17874,0.44958 0.5614,-0.18352 0.83678,-1.03169 0.68368,-2.10635 l 2.93677,-0.95446 c 0.48244,1.71725 0.74569,3.52716 0.74569,5.40123 0,0.60003 -0.0309,1.1924 -0.0827,1.77869 h 3.7269 c 0.044,-0.58719 0.0672,-1.18044 0.0672,-1.77869 0,-2.27147 -0.32441,-4.46841 -0.92707,-6.54843 l 0.22582,-0.0734 c 0.82601,0.44664 2.12815,0.46733 3.40135,0.0522 1.935,-0.6287 3.20813,-2.04798 2.84323,-3.17034 v 0.003 c -0.3645,-1.12266 -2.22857,-1.52252 -4.16357,-0.89401 -1.45339,0.47356 -2.58467,1.41719 -2.84427,2.3735 l -0.0274,0.009 C 184.2957,278.20219 175.9247,271.89505 166.0767,271.6604 v -0.46303 c 0.25504,-0.24283 0.47371,-0.56771 0.64751,-0.9498 0.0579,-0.12737 0.111,-0.26088 0.15864,-0.39997 0.0476,-0.13909 0.0899,-0.28358 0.12661,-0.43254 0.11015,-0.44688 0.16956,-0.93406 0.17002,-1.43608 0,-2.03411 -0.95661,-3.68361 -2.13631,-3.6835 z m 1.03353,11.08356 c 8.23526,0.23093 15.19383,5.44123 17.9808,12.73929 l -2.95331,0.95962 c -0.5052,-0.88533 -1.18843,-1.35298 -1.72392,-1.17978 -0.35161,0.11504 -0.59925,0.49575 -0.68885,1.05627 -0.4017,-0.40135 -0.82706,-0.5633 -1.17926,-0.44855 -0.3927,0.12785 -0.6539,0.58589 -0.7121,1.24592 -0.4372,-0.4994 -0.9182,-0.71633 -1.31,-0.58962 -0.53409,0.17513 -0.81325,0.95483 -0.70125,1.96731 l -1.18339,0.40206 c -1.37065,-2.88634 -4.25824,-5.00912 -7.52872,-5.23224 v -1.37409 c 0.40064,-0.0698 0.75264,-0.18711 1.03611,-0.33745 0.18898,-0.10022 0.34743,-0.21503 0.46974,-0.34054 0.0611,-0.0628 0.11325,-0.12835 0.15554,-0.19585 0.0634,-0.10125 0.10505,-0.2073 0.12196,-0.31626 0.006,-0.0363 0.008,-0.0727 0.008,-0.10956 0,-0.36089 -0.27147,-0.70517 -0.74827,-0.95962 -0.0681,-0.0363 -0.14024,-0.0709 -0.21652,-0.10337 0.30514,-0.13007 0.54611,-0.2926 0.71106,-0.47437 0.0412,-0.0455 0.0775,-0.0924 0.10904,-0.14004 0.0946,-0.14288 0.14443,-0.29427 0.14469,-0.44908 0,-0.13827 -0.0398,-0.27475 -0.11679,-0.40463 -0.0257,-0.0433 -0.0557,-0.0859 -0.0894,-0.12763 -0.0337,-0.0417 -0.0712,-0.0821 -0.11265,-0.12198 -0.0414,-0.0398 -0.087,-0.0786 -0.13591,-0.11626 -0.049,-0.0376 -0.10141,-0.0745 -0.15761,-0.10956 -0.0562,-0.0351 -0.11613,-0.0685 -0.17932,-0.10075 0.12653,-0.0644 0.2395,-0.13507 0.33745,-0.21035 0.049,-0.0376 0.0945,-0.0764 0.13591,-0.11625 0.0829,-0.0797 0.15027,-0.16383 0.20153,-0.25064 0.0256,-0.0434 0.0473,-0.0876 0.0646,-0.1323 0.0174,-0.0447 0.0305,-0.0898 0.0393,-0.13538 0.009,-0.0456 0.0129,-0.0917 0.0129,-0.13798 0,-0.18455 -0.0703,-0.36275 -0.19999,-0.52607 -0.0778,-0.098 -0.17669,-0.19037 -0.29456,-0.27594 -0.23574,-0.17116 -0.54691,-0.31395 -0.91312,-0.41394 -0.12207,-0.0333 -0.25033,-0.062 -0.38396,-0.0852 z m -1.79163,0.0265 v 2.85514 c -0.24962,0.0516 -0.47819,0.12203 -0.68006,0.20722 -0.10093,0.0426 -0.19498,0.0889 -0.28215,0.13849 -0.0872,0.0496 -0.16707,0.1025 -0.23926,0.15814 -0.0722,0.0556 -0.13676,0.11393 -0.19276,0.17465 -0.13999,0.15182 -0.22775,0.31797 -0.25321,0.49144 -0.005,0.0347 -0.008,0.0697 -0.008,0.1049 0,0.0923 0.0179,0.18373 0.0527,0.27287 0.0174,0.0446 0.0394,0.0885 0.0651,0.13176 0.0514,0.0866 0.11863,0.1705 0.20154,0.25011 0.12436,0.11943 0.28306,0.22947 0.47232,0.3261 -0.0632,0.0323 -0.12309,0.0661 -0.17932,0.10128 -0.0562,0.0352 -0.10865,0.0719 -0.15761,0.10954 -0.0979,0.0754 -0.18124,0.15568 -0.24856,0.23926 -0.0673,0.0836 -0.11879,0.17071 -0.15348,0.25993 -0.0174,0.0446 -0.0305,0.0893 -0.0393,0.13488 -0.009,0.0456 -0.0134,0.0918 -0.0134,0.13798 0,0.0516 0.006,0.10279 0.0165,0.15349 0.0218,0.10136 0.0651,0.20037 0.12816,0.29559 0.0631,0.0952 0.14581,0.18666 0.24701,0.27234 0.0506,0.0428 0.10581,0.0842 0.16536,0.12401 0.0596,0.0398 0.12361,0.0778 0.19172,0.11419 0.0681,0.0364 0.14024,0.0709 0.21653,0.10337 -0.15258,0.065 -0.28922,0.13843 -0.40825,0.21807 -0.11902,0.0796 -0.22036,0.16545 -0.30282,0.25631 -0.0412,0.0454 -0.0775,0.0924 -0.10904,0.14004 -0.0315,0.0476 -0.0582,0.0959 -0.0796,0.14523 -0.0214,0.0493 -0.0376,0.0997 -0.0486,0.15036 -0.011,0.0507 -0.0169,0.10192 -0.0171,0.15349 0,0.0351 0.003,0.0698 0.008,0.10437 0.005,0.0346 0.0128,0.0694 0.0227,0.10338 0.01,0.034 0.022,0.0675 0.0367,0.10075 0.1323,0.29935 0.45364,0.56624 0.90795,0.75811 0.10096,0.0426 0.20899,0.0815 0.32247,0.11626 0.11347,0.0348 0.23285,0.0655 0.3576,0.0915 l 0.0196,1.46708 c -3.10109,0.44929 -5.77946,2.59504 -7.01404,5.42087 l -1.59836,-0.51935 c 0.1532,-1.07408 -0.12194,-1.92239 -0.68264,-2.10633 -0.3928,-0.1267 -0.87308,0.0902 -1.30948,0.58963 -0.058,-0.66003 -0.32134,-1.11818 -0.71314,-1.24592 -0.3521,-0.11375 -0.77619,0.0467 -1.17719,0.44958 -0.09,-0.56134 -0.33829,-0.94293 -0.69039,-1.05731 -0.5614,-0.18147 -1.28342,0.3429 -1.79163,1.30279 l -2.47785,-0.80524 c 2.64298,-7.24905 9.38242,-12.50373 17.43511,-12.99043 z m 1.79163,13.81363 c 1.89738,0.22809 3.70465,1.56403 4.6922,3.27731 l -4.6922,1.59525 z m -1.73168,0.108 0.0646,4.77388 -4.28087,-1.39113 c 0.8601,-1.63187 2.46518,-2.95907 4.21628,-3.38275 z m 0.75447,5.70973 h 0.30024 l 0.0935,0.28732 -0.2434,0.17674 -0.2434,-0.17725 z M 1.2821,267.77853 9.9999999e-6,280.154 v 15.45383 L 2.86598,267.94337 Z m 2.50734,0.2594 c 0.2995,1.16057 0.70713,4.13978 -0.38757,5.02918 2.40569,-0.53404 8.02713,-0.59524 10.50013,-0.91313 -2.5026,-1.13271 -7.79426,-2.34181 -10.11256,-4.11605 z m -0.416,5.7666 c -0.893,3.40381 -0.0836,12.92383 -0.15554,23.19546 H 15.25541 C 11.04742,290.3186 7.20797,282.96308 3.37344,273.80453 Z m 293.55677,-77.5157 c -1.52371,-0.022 -3.83405,0.51713 -5.74128,1.06763 -1.63512,0.47132 -2.58595,0.82268 -2.9347,0.94826 0.62677,0.4221 3.82519,2.56617 6.17535,3.70727 1.39509,0.67672 1.7354,1.87205 1.6247,2.91352 -0.10729,1.04207 -0.60434,1.95221 -0.85834,2.3151 -0.15861,0.22541 -0.47625,0.50037 -0.94776,0.88832 -0.47109,0.38809 -1.08246,0.86324 -1.77456,1.38338 -1.38409,1.0403 -3.08491,2.25989 -4.58679,3.30729 -0.6019,0.41993 -1.73895,1.54917 -3.10835,3.06234 -1.3693,1.51292 -2.98686,3.41791 -4.61987,5.42913 -3.26619,4.02253 -6.59777,8.47839 -8.12455,11.05462 -1.74651,2.94194 -2.8235,5.70878 -3.4246,7.55148 2.26531,-4.12013 5.43607,-7.8118 9.25007,-11.07581 4.48089,-3.83536 9.84521,-7.08181 15.65382,-9.74618 3.62374,-1.66227 7.42098,-3.09793 11.28665,-4.30774 v -16.03933 c -0.37666,-0.25415 -0.74144,-0.48312 -1.04955,-0.632 -2.1309,-1.02895 -4.48246,-1.79268 -6.82024,-1.82728 z M 304.8,215.13005 c -3.82151,1.19977 -7.57491,2.61969 -11.15592,4.26228 -5.78638,2.65418 -11.12165,5.88692 -15.57475,9.69811 l -0.006,-0.005 c -4.25791,3.64397 -7.70543,7.81809 -9.96994,12.51965 -0.0932,0.33624 -0.14624,0.56483 -0.14624,0.56483 l -0.018,0.1142 -0.0977,0.0538 c 0,-1e-5 -2.0112,1.0693 -4.27519,2.6944 -2.2637,1.62431 -4.76925,3.8154 -5.74436,5.9645 -0.6493,1.43185 -1.96629,4.36172 -2.12959,4.71341 0.1971,0.0641 0.67521,0.24128 1.45211,0.28318 0.46,0.0247 0.9455,-0.0101 1.3653,-0.15865 0.4198,-0.1486 0.77271,-0.40133 1.01441,-0.8356 0.5941,-1.06605 1.66198,-1.43198 2.63188,-1.62316 0.4854,-0.0966 0.95392,-0.15243 1.34204,-0.22893 0.38838,-0.0772 0.68887,-0.18043 0.84386,-0.3147 0.46501,-0.40299 1.36936,-0.99286 2.17147,-1.49759 0.80248,-0.50467 1.4955,-0.91467 1.4955,-0.91467 l 0.55242,-0.32711 -0.19018,0.61391 c -0.3737,1.1848 -0.8247,2.1815 -0.13951,3.83491 0.6877,-0.0503 1.51148,0.20736 2.2779,0.67438 0.84889,0.51726 1.60533,1.24622 1.79522,2.08981 0.0855,0.39108 0.12883,0.68672 0.16383,0.91776 0.1378,-0.22876 0.32298,-0.55359 0.60979,-1.03818 0.58208,-0.9815 1.05595,-2.76613 1.28725,-4.59404 0.23141,-1.82861 0.22487,-3.71488 -0.078,-4.90099 -0.31092,-1.21456 -0.73126,-1.90608 -0.91107,-2.70164 -0.18119,-0.79598 -0.0697,-1.65601 0.65267,-3.05615 0.38381,-0.74418 1.27299,-1.78849 2.51148,-3.04736 1.23841,-1.25908 2.82257,-2.71782 4.57337,-4.21783 3.50078,-3.00026 7.66802,-6.16714 11.07011,-8.22947 3.9094,-2.36966 8.3099,-3.77059 12.6261,-5.1878 z M 295.97419,80.447834 c -0.0737,0 -0.14679,0.006 -0.2186,0.0186 -0.14364,0.02516 -0.28321,0.075 -0.41704,0.146762 -0.1338,0.07176 -0.2618,0.165623 -0.3829,0.279053 -0.18166,0.170143 -0.34745,0.38459 -0.4925,0.634585 -0.0967,0.166663 -0.18412,0.34921 -0.26096,0.545187 -0.0768,0.195974 -0.14279,0.405455 -0.19687,0.6258 -0.027,0.110175 -0.051,0.222626 -0.0718,0.337966 -0.0209,0.11534 -0.0385,0.233577 -0.0527,0.353467 -0.0143,0.119888 -0.0251,0.241533 -0.0326,0.36535 -0.007,0.12382 -0.0109,0.249589 -0.0109,0.376722 0,0.382161 0.0342,0.754136 0.0987,1.105876 0.0322,0.175871 0.0721,0.346715 0.11885,0.51108 0.0467,0.164364 0.10046,0.322582 0.16071,0.472839 0.0301,0.07513 0.0618,0.147995 0.0951,0.219107 0.0333,0.07111 0.068,0.140452 0.10437,0.207224 0.0364,0.06677 0.0744,0.131162 0.1137,0.193271 0.0785,0.124214 0.16229,0.238492 0.25167,0.342098 0.0447,0.0518 0.0908,0.101116 0.13795,0.147278 0.0472,0.04616 0.0956,0.08951 0.14523,0.129706 0.0496,0.0402 0.1006,0.0772 0.15243,0.111104 v 0.265618 c -9.66669,0.496631 -17.81346,6.847842 -20.95684,15.567013 l -0.69194,-0.2248 c -0.40611,-0.84623 -1.44746,-1.62874 -2.72026,-2.0438 -1.93501,-0.62831 -3.79897,-0.22752 -4.16357,0.894 -0.36539,1.12277 0.9079,2.54237 2.84221,3.17087 1.4541,0.471 2.92523,0.37218 3.69745,-0.24856 l 0.4935,0.16071 c -0.55055,1.99492 -0.84593,4.09422 -0.84593,6.26163 0,7.45858 3.48454,14.11851 8.91002,18.44022 l -0.40254,0.55397 c -0.9313,0.12477 -1.99715,0.87405 -2.78484,1.95647 -1.19609,1.6456 -1.39128,3.54197 -0.43667,4.2354 v -0.004 c 0.9548,0.69344 2.69782,-0.0779 3.89382,-1.72392 0.898,-1.23652 1.25817,-2.6664 0.90588,-3.59255 l 0.26408,-0.36328 c 3.77214,2.56498 8.32353,4.0659 13.21829,4.0659 2.94323,0 5.76117,-0.54415 8.36126,-1.53427 v -4.01578 c -2.54032,1.17741 -5.37094,1.83865 -8.36126,1.83865 -4.09273,0 -7.89059,-1.23175 -11.04635,-3.34347 l 1.58647,-2.18281 c 0.92911,0.41933 1.75704,0.39507 2.08775,-0.0568 0.21637,-0.29954 0.19367,-0.7539 -0.062,-1.25936 0.56139,0.088 1.00041,-0.0294 1.21801,-0.32969 0.2418,-0.33378 0.18465,-0.85797 -0.15555,-1.42731 0.6464,0.14802 1.163,0.0385 1.4056,-0.293 0.32991,-0.4554 0.0957,-1.24949 -0.58963,-2.0035 l 0.95809,-1.35702 c 1.35776,0.84496 2.93804,1.3395 4.59763,1.33945 1.55475,0 3.03835,-0.43541 4.33618,-1.18494 l 0.79944,1.10071 c -0.75491,0.77896 -1.03182,1.62746 -0.68522,2.1053 0.24299,0.33327 0.75848,0.44055 1.40557,0.29249 -0.34118,0.56945 -0.39835,1.094 -0.15605,1.42782 0.21752,0.29879 0.65667,0.41646 1.21698,0.32814 -0.2576,0.50629 -0.28067,0.96133 -0.061,1.26091 0.26117,0.35782 0.82759,0.44681 1.50535,0.2682 v -6.91431 c -0.41569,-0.18351 -1.05897,-0.11963 -1.76062,0.19844 l -0.82063,-1.09761 c 1.13599,-0.98492 2.03653,-2.23986 2.58125,-3.64835 v -6.85902 l -0.26355,0.0894 c -1.37065,-2.88632 -4.25826,-5.00909 -7.52875,-5.23224 v -1.37407 c 0.40066,-0.0698 0.75266,-0.18711 1.03611,-0.33745 0.18899,-0.10023 0.34745,-0.21504 0.46974,-0.34055 0.0612,-0.0628 0.11327,-0.12835 0.15555,-0.19585 0.0634,-0.10124 0.10507,-0.207301 0.12198,-0.316261 0.006,-0.0363 0.008,-0.0726 0.008,-0.10955 0,-0.41246 -0.35502,-0.80317 -0.96531,-1.06299 0.61029,-0.26013 0.96462,-0.65069 0.96531,-1.0635 0,-0.13826 -0.0398,-0.27475 -0.11679,-0.40462 -0.0257,-0.0433 -0.0557,-0.0854 -0.0894,-0.12713 -0.0337,-0.0417 -0.0712,-0.0826 -0.11266,-0.12247 -0.0414,-0.0398 -0.0869,-0.0786 -0.13589,-0.11628 -0.049,-0.0376 -0.10142,-0.0744 -0.15761,-0.10955 -0.0562,-0.0351 -0.11616,-0.0685 -0.17934,-0.10077 0.12652,-0.0644 0.2395,-0.13506 0.33745,-0.21032 0.049,-0.0376 0.0945,-0.0764 0.13592,-0.11627 0.0829,-0.0798 0.15028,-0.16384 0.20153,-0.25063 0.0257,-0.0434 0.0473,-0.0876 0.0646,-0.1323 0.0175,-0.0447 0.0305,-0.0898 0.0393,-0.13539 0.009,-0.0456 0.013,-0.0917 0.013,-0.13797 0,-0.18456 -0.0703,-0.36223 -0.19997,-0.52555 -0.0778,-0.098 -0.17669,-0.19089 -0.29456,-0.27647 -0.23575,-0.17116 -0.54692,-0.31394 -0.91313,-0.41393 -0.12208,-0.0333 -0.25032,-0.062 -0.38397,-0.0853 v -2.85512 c 2.78019,0.07796 5.41409,0.72187 7.7923,1.82418 v -4.015777 c -2.432,-0.926168 -5.05473,-1.461812 -7.7923,-1.52704 V 87.3504 c 0.25504,-0.242843 0.47371,-0.568238 0.64752,-0.950331 0.0579,-0.127365 0.11099,-0.260876 0.15864,-0.399975 0.0477,-0.139097 0.0899,-0.28357 0.12661,-0.432531 0.11014,-0.446889 0.16957,-0.934069 0.17002,-1.436089 0,-2.034098 -0.9566,-3.683606 -2.1363,-3.683495 z m -0.75811,11.109915 v 2.85512 c -0.24961,0.0516 -0.47818,0.12203 -0.68006,0.20723 -0.10094,0.0426 -0.19497,0.0889 -0.28215,0.13849 -0.0872,0.0496 -0.16706,0.10251 -0.23926,0.15813 -0.0722,0.0556 -0.13674,0.11394 -0.19275,0.17466 -0.13999,0.15182 -0.22776,0.31798 -0.25321,0.49145 -0.005,0.0347 -0.008,0.0697 -0.008,0.1049 0,0.0923 0.018,0.18372 0.0527,0.27285 0.0175,0.0446 0.0389,0.0885 0.0646,0.13178 0.0514,0.0866 0.11917,0.1705 0.20206,0.25011 0.12435,0.11942 0.28305,0.22946 0.47233,0.32608 -0.0632,0.0323 -0.12311,0.0661 -0.17933,0.10129 -0.0562,0.0352 -0.10864,0.0718 -0.15761,0.10955 -0.0979,0.0754 -0.18124,0.15568 -0.24855,0.23926 -0.0673,0.0836 -0.1188,0.1707 -0.15349,0.25993 -0.0175,0.0446 -0.0304,0.0898 -0.0393,0.1354 -0.009,0.0455 -0.0135,0.0913 -0.0135,0.13745 0,0.0516 0.006,0.1028 0.0164,0.15348 0.0217,0.10138 0.0651,0.20038 0.12816,0.29559 0.063,0.0952 0.14581,0.18667 0.24702,0.27234 0.0506,0.0428 0.1058,0.0842 0.16536,0.12402 0.0595,0.0398 0.12359,0.0778 0.19172,0.11421 0.0681,0.0364 0.14023,0.0709 0.21651,0.10335 -0.15256,0.065 -0.28922,0.13845 -0.40823,0.21807 -0.11903,0.0796 -0.22037,0.16546 -0.30284,0.25632 -0.0412,0.0454 -0.0775,0.0924 -0.10903,0.14004 -0.0315,0.0476 -0.0582,0.0959 -0.0796,0.14521 -0.0214,0.0494 -0.0376,0.0997 -0.0486,0.15038 -0.0109,0.0507 -0.0169,0.10191 -0.0169,0.15348 0,0.0351 0.003,0.0698 0.008,0.10439 0.005,0.0346 0.0127,0.0694 0.0227,0.10335 0.0101,0.034 0.022,0.0675 0.0367,0.100771 0.13229,0.29933 0.45363,0.56622 0.90795,0.75809 0.10096,0.0426 0.20849,0.0815 0.32194,0.11627 0.11348,0.0348 0.23336,0.0655 0.35812,0.0915 l 0.0196,1.4671 c -3.1011,0.44928 -5.77947,2.59503 -7.01405,5.42085 l -1.59821,-0.51935 c 0.15319,-1.07408 -0.12195,-1.9224 -0.68265,-2.10633 -0.3928,-0.12671 -0.87308,0.0902 -1.30948,0.58963 -0.058,-0.66002 -0.32134,-1.11818 -0.71313,-1.24592 -0.35211,-0.11375 -0.77621,0.0467 -1.17719,0.44959 -0.09,-0.56136 -0.33832,-0.94293 -0.6904,-1.0573 -0.56139,-0.18149 -1.28344,0.3434 -1.79163,1.30328 l -2.47786,-0.80564 c 2.64296,-7.249051 9.3824,-12.503739 17.43508,-12.990421 z m 1.79162,13.813631 c 1.89741,0.22808 3.70467,1.56403 4.69223,3.27732 l -4.69223,1.59525 z m -1.73167,0.108 0.0646,4.77387 -4.28086,-1.39113 c 0.86009,-1.63188 2.46518,-2.95908 4.21627,-3.38274 z m -18.02938,0.7798 2.48305,0.80719 c -0.11092,1.0131 0.16679,1.79252 0.70228,1.9668 0.3515,0.11317 0.77608,-0.0477 1.17719,-0.44959 0.089,0.56078 0.33858,0.94185 0.68987,1.05679 0.3928,0.1261 0.87336,-0.0901 1.30897,-0.59015 0.058,0.6611 0.32134,1.11878 0.71313,1.24644 0.53491,0.17276 1.21801,-0.29393 1.72342,-1.17874 l 1.63555,0.50694 c -0.1206,0.56841 -0.185,1.15334 -0.185,1.74873 0,2.53046 1.1497,4.87641 2.93937,6.53035 l -0.98547,1.35651 c -0.97481,-0.47722 -1.86645,-0.47819 -2.21486,0 -0.24151,0.3333 -0.18433,0.85817 0.15606,1.42731 -0.64649,-0.14804 -1.1628,-0.0389 -1.4056,0.293 -0.21649,0.29936 -0.1936,0.75295 0.062,1.25884 -0.5615,-0.0888 -1.00042,0.0301 -1.21801,0.3297 -0.34611,0.47837 -0.0722,1.32644 0.68471,2.10581 l -1.56064,2.1487 c -4.498,-3.6363 -7.3706,-9.19852 -7.3706,-15.45022 0,-1.76962 0.23278,-3.48296 0.66456,-5.11441 z m 25.09873,4.00389 c 0.0846,0.3659 0.1302,0.7379 0.1302,1.11052 0,1.59647 -0.83079,3.1768 -2.05618,4.32171 l -2.89078,-3.86747 z m -11.86079,0.23099 4.35324,1.34876 -2.6257,3.61476 c -1.08942,-1.12092 -1.81023,-2.59617 -1.81023,-4.08399 0,-0.29456 0.0291,-0.58845 0.0827,-0.87953 z m 5.5454,0.69505 h 0.30075 l 0.0936,0.28732 -0.24342,0.17673 -0.24389,-0.17725 z m 0.15864,1.63091 2.8298,3.89485 c -0.80735,0.4382 -1.69124,0.69557 -2.57969,0.69557 -0.99912,0 -1.99141,-0.32817 -2.87631,-0.87075 z M 270.60727,-7.8000106 c -6.05671,4.933355 -11.78035,10.265288 -16.94678,16.462562 0.18283,0.07357 0.36001,0.143462 0.54208,0.216524 l -4.03593,6.0249546 c -0.13716,-0.04415 -0.27286,-0.08627 -0.41031,-0.130741 -0.049,1.54154 0.0539,3.137412 0.31575,4.771803 19.92146,5.229754 37.57424,8.628425 54.72792,10.433471 v -3.994071 c -15.89961,-1.298689 -33.5926,-4.307507 -54.63232,-11.079945 1.45303,-2.021004 2.26759,-3.254175 4.04109,-6.0234046 16.31455,6.5463686 29.62274,11.0518496 45.45874,10.9621216 -1.54998,0.1466 -2.52984,-13.0995076 -0.95912,-27.6432746 z m 32.44762,0 -3.41789,32.9912686 c 0.5474,0.238411 1.08199,0.342048 1.587,0.134358 l 3.43183,-33.1256266 z M 304.8,15.615615 c -0.45913,1.167436 -0.97967,2.261531 -1.57199,3.262333 0.54948,0.05694 1.06825,0.09775 1.57199,0.130741 z m -54.66333,4.314983 c 0.3454,1.972238 0.92398,3.999092 1.75028,6.056992 19.16522,4.926082 36.26187,8.133834 52.91305,9.840228 V 30.336163 C 287.65863,28.534586 270.02228,25.144361 250.13667,19.930598 Z m 1.91823,6.467821 c 1.0126,2.429749 2.37256,4.898599 4.10466,7.367509 17.43835,4.289753 33.22134,7.121035 48.64044,8.664588 v -6.245614 c -16.60827,-1.700009 -33.65634,-4.89082 -52.7451,-9.786483 z m 4.41989,7.811411 c 1.68461,2.340469 3.70586,4.677973 6.08645,6.978385 14.97793,3.547639 28.77295,5.997776 42.23876,7.465177 V 42.788116 C 289.46912,41.25521 273.78076,38.451079 256.47479,34.20983 Z M 66.87523,267.61354 66.44718,265.71836 c 0.25948,-1.40481 -0.6135,-1.11911 -1.22756,-2.00541 l -2.77846,-1.123 -3.27118,0.27641 c -4.94957,0.2372 -3.39658,-1.71633 -4.53078,-3.09671 -0.92714,-0.98671 11.61104,3.28059 11.47145,2.78199 -0.2917,-1.03749 -10.83199,-3.00919 -11.78457,-4.32898 -0.88868,-0.15862 -0.97303,-3.07261 -0.40245,-3.50551 0.90387,-0.6863 25.16134,14.816 0.50865,-1.262 -0.71815,-0.89131 0.47166,-3.15341 0.94669,-3.82461 -1.06337,-1.5702 12.59459,11.9932 12.70554,11.6312 0.1114,-0.36298 -11.32368,-11.1875 -12.23216,-12.5181 0.13811,-1.4356 0.55774,-3.0421 1.96125,-3.95779 1.73249,2.90449 10.4748,15.93101 10.87783,15.52329 0.40298,-0.40659 -10.57996,-15.6471 -10.28623,-16.11089 0.55268,-0.86981 2.8266,-2.4722 3.17537,-2.2143 l 8.09724,17.929 -7.27667,-18.45341 c 1.2696,-0.99469 2.01434,-1.60379 3.0297,-1.53449 l 5.07975,19.1348 -4.27508,-19.33121 c 0.84509,-0.1345 1.31963,-0.6645 2.64981,-0.282 l 2.57051,19.74431 -1.84905,-19.9873 c 0.70429,-0.22541 1.57637,-0.48341 2.36172,0.15269 0.84252,-0.06 -0.15171,18.5544 0.33276,19.19731 l 0.54641,-19.18601 c 0.51191,-0.89869 2.2585,0 2.83314,0.47441 -0.81061,14.95119 -1.90656,12.18119 -2.28578,18.908 l 2.99396,-18.7268 c 0.69219,0.35989 1.4857,0.3899 2.00802,1.30449 l -4.16213,17.5318 4.69174,-16.971 c -0.0528,0 2.20956,0.5147 1.4865,1.9368 l -5.34073,15.18871 5.92174,-14.64711 c 1.02667,0.3958 1.6603,1.2055 1.6972,2.6411 l -6.61466,12.4685 6.97075,-12.2091 c 0.97248,0.9994 0.96408,2.2641 0.90583,3.0261 l -7.23812,9.35721 7.41038,-8.78081 c 0.47646,-0.082 1.14535,3.19611 -0.0922,3.65641 -0.32673,0.30689 -5.92032,4.70159 -5.92032,4.70159 l -0.33481,1.91482 c 0,0 -0.16712,1.30588 0.15899,1.69698 0.32665,0.39071 1.01715,1.2999 1.01715,1.2999 0,0 -3.55513,2.10992 -4.16989,2.15511 -0.61528,0.051 -4.02841,0.99499 -4.40649,0.89821 -0.37781,-0.091 -1.90788,0.1525 -1.90788,0.1525 z m 146.52965,-40.11655 c 0.8867,-0.093 1.7887,-0.0506 2.6308,0.12191 1.0601,0.21972 2.3048,0.5475 3.3215,1.07648 1.0128,0.52539 1.7757,1.23047 2.0019,2.21115 -0.1116,1.30947 0.072,2.70569 0.4425,4.13952 -1.1417,-0.13146 -2.2069,-0.0995 -3.2022,0.0649 v 0 c -3.5546,0.59708 -6.2252,2.89569 -8.3827,5.4488 -1.4387,1.70229 -2.664,3.52067 -3.8001,5.04425 -1.1346,1.52116 -2.1902,2.7359 -3.2033,3.25361 -0.1632,0.0752 -0.3319,0.1462 -0.5064,0.20724 -0.02,0 -0.02,0 -0.022,0 v 0.0164 c -1.0522,0.36392 -2.2974,0.4296 -3.4307,0.2644 -1.1847,-0.17318 -2.2388,-0.60855 -2.8142,-1.12225 0.5196,-0.32718 1.0061,-0.7478 1.4622,-1.24286 1.3779,-1.49892 2.5349,-3.66465 3.7026,-6.01658 2.3368,-4.70353 4.7297,-10.1375 8.6072,-12.40811 v 0 0 c 0.5155,-0.32215 1.0889,-0.5718 1.6921,-0.75179 0,0 0.021,0 0.022,0 v 0 c 0.3587,-0.1054 0.727,-0.18583 1.1004,-0.24175 v 0 c 0.1227,-0.0165 0.2526,-0.0312 0.3787,-0.0457 z m -3.8869,0.77085 c -3.9049,2.53848 -6.2026,7.88783 -8.4547,12.42126 -1.163,2.34126 -2.3114,4.46725 -3.6061,5.87477 -1.1177,1.21579 -2.3001,1.89466 -3.7545,1.79818 1.3218,-0.95655 2.2764,-2.44904 3.1253,-4.18171 0.9866,-2.01586 1.8363,-4.37048 2.9215,-6.65874 1.9016,-4.00998 4.478,-7.79553 9.7685,-9.25376 z m 15.7796,1.16667 c 0.1166,0.0766 0.2494,0.20545 0.3722,0.46539 0.1382,0.29279 0.2638,0.69676 0.3736,1.17568 0.22,0.95929 0.3842,2.22054 0.5877,3.56099 0.3869,2.55014 0.9194,5.36982 2.3533,7.1396 -0.8412,0.63621 -1.734,1.01487 -2.6514,1.46173 -2.5322,-4.03383 -4.5979,-8.54442 -4.3513,-12.13031 0.1861,-0.0889 0.559,-0.15603 0.982,-0.23562 0.4559,-0.0795 0.9652,-0.19417 1.2854,-0.60399 l 0.033,-0.0352 c 0,0 0,0 0.02,0 0.032,-0.0266 0.073,-0.0659 0.1204,-0.11595 0.104,-0.096 0.2491,-0.22082 0.3969,-0.33933 0.1486,-0.11867 0.3037,-0.22843 0.4216,-0.29841 0.039,-0.0204 0.06,-0.0251 0.074,-0.0342 z m 0.9742,0.17339 0.1041,0.34514 c 0.304,-0.0939 1.2892,-0.29999 2.1895,-0.46049 0.45,-0.0784 0.8855,-0.1513 1.2177,-0.19741 0.1667,-0.0203 0.3077,-0.0363 0.4066,-0.0484 0.054,-0.0164 0.084,-0.0164 0.1116,0 0.021,0 0.021,0 0.021,0 h 0.02 l 0.049,0.0164 c 0.031,0 0,-0.0174 0.039,0.0266 0.031,0.0456 0.075,0.16287 0.1019,0.33069 0.064,0.33217 0.072,0.85317 0.072,1.45513 0.02,1.20454 0.02,2.75106 0.4887,4.08397 0.1976,0.5433 0.6896,1.47304 1.1021,2.39527 0.2063,0.4608 0.392,0.91641 0.505,1.29293 0.1063,0.35914 0.1241,0.65258 0.1052,0.75241 -0.021,0 -0.039,0.0467 -0.1019,0.0953 -0.083,0.0628 -0.22249,0.14574 -0.3859,0.22858 -0.3278,0.16541 -0.7704,0.34059 -1.2218,0.49366 -0.4515,0.15454 -0.9141,0.28501 -1.2843,0.36702 -0.1853,0.0395 -0.3484,0.0653 -0.4686,0.0798 -0.1166,0.0164 -0.2125,0 -0.1749,0.0164 l -0.039,0.10728 c -1.038,-1.62001 -1.5216,-4.12065 -1.8717,-6.42572 -0.2024,-1.33259 -0.3657,-2.59737 -0.5962,-3.60414 -0.114,-0.5037 -0.2459,-0.9428 -0.4169,-1.30305 0,-0.0164 0,-0.0164 -0.023,-0.0179 z m 7.0024,0.36199 c 0.1663,-0.0203 0.3109,-0.0164 0.4111,0 0.1029,0.0204 0.1468,0.0505 0.1694,0.0784 0.024,0.0258 0.054,0.0724 0.042,0.20705 -0.1116,1.57727 0.4779,3.94962 2.4943,5.25567 0.196,0.12796 0.2293,0.21436 0.2332,0.24598 0,0.0267 -0.018,0.0918 -0.1142,0.20392 -0.2188,0.22337 -0.7604,0.5124 -1.3667,0.74748 -0.8718,0.33929 -1.8582,0.59957 -2.3539,0.72162 -0.03,-0.0457 -0.041,-0.0936 -0.065,-0.1391 -0.424,-0.94583 -0.9263,-1.91643 -1.0857,-2.35444 -0.4322,-1.18589 -0.4439,-2.67249 -0.4536,-3.87994 0,-0.14329 0,-0.28184 -0.019,-0.41607 0.072,-0.0331 0.8171,-0.38248 1.54629,-0.57217 0.19171,-0.0474 0.38151,-0.0816 0.54811,-0.10231 z m 2.3471,0.76736 c 0.1797,-0.0164 0.3381,0 0.443,0.0399 0.1379,0.0555 0.2222,0.12936 0.2574,0.41018 0.103,0.82095 0.5985,1.30924 1.0468,1.54909 0.1395,0.0724 0.1504,0.0412 0.2735,0.0806 l -1.6745,1.37303 0.2708,0.32916 -0.073,0.0547 c -1.0764,-0.97155 -1.5591,-2.36012 -1.6592,-3.50339 0.1744,-0.0785 0.5527,-0.24546 0.9244,-0.31556 0.074,-0.0164 0.124,-0.0164 0.1852,-0.0219 z m -16.511,4.90972 c 0.8949,-0.11062 1.8511,-0.10453 2.8731,0.0342 0.7284,2.39758 1.9917,4.87966 3.4165,7.22096 -0.1599,-0.0301 -0.3357,-0.0547 -0.5287,-0.0784 -0.5397,-0.0659 -1.1971,-0.11062 -1.9023,-0.12557 -1.4104,-0.0261 -3.0074,0.0507 -4.2139,0.25917 -2.9569,0.50839 -4.894,2.57418 -7.1237,4.19874 -2.037,1.48418 -4.2935,2.64091 -7.8862,2.1064 1.0959,-0.65462 2.0938,-1.86251 3.1598,-3.29099 1.1488,-1.54111 2.3662,-3.34641 3.7771,-5.01555 2.2031,-2.60749 4.8387,-4.86715 8.4283,-5.30714 z m 0.1957,7.84116 c 1.0871,-0.1464 2.4451,-0.20603 3.6502,-0.1816 0.6889,0.0164 1.3288,0.0526 1.8375,0.12015 0.5093,0.0628 0.9026,0.17434 1.0108,0.23749 l 0.039,-0.0525 c 0.041,0.06 0.076,0.12327 0.114,0.18386 l 0.039,0.0539 c -0.3358,0.99979 -1.1805,2.05222 -2.4332,3.07004 -1.5015,1.22133 -3.52,2.38542 -5.673,3.38878 -4.3047,2.00701 -9.1853,3.36662 -11.4874,3.3786 -6.1554,-0.0164 -10.7759,-1.13906 -15.0811,-5.26639 0.5961,0.15798 1.0278,0.26058 1.5138,0.42061 l 0.021,0.0164 h 0.023 c 1.1128,0.24957 2.1179,0.1054 3.0277,-0.32555 0.6976,0.73548 1.9198,1.21846 3.2836,1.4171 1.1668,0.16827 2.4404,0.12091 3.5745,-0.24326 4.2769,0.90684 6.9918,-0.40679 9.2488,-2.05119 2.2898,-1.66835 4.1424,-3.62343 6.8684,-4.09071 0.1422,-0.0268 0.293,-0.0464 0.4477,-0.0647 z M 25.1287,197.97296 c -4.27795,2e-4 -8.5723,0.4583 -12.80697,1.11259 -3.0031,0.46384 -8.94674,2.20039 -8.94674,2.20039 l -0.22996,-0.42168 v 0.36948 c 0,0 -0.66078,-0.59288 -1.51928,-1.28157 -0.5074,-0.40629 -1.08156,-0.8369 -1.6257400000001,-1.20406 v 16.03933 C 8.52658,212.11893 17.3853,210.54935 25.44548,210.07041 c 7.6765,-0.4564 14.17719,-0.0617 21.5775,1.24179 -0.004,-0.007 -0.004,-0.007 -0.016,-0.0217 -0.1256,-0.14759 -0.61938,-0.4392 -1.00718,-0.60668 -1.5198,-0.61085 -2.55503,-0.61033 -4.25504,-0.61133 -1.2828,-0.11023 -3.05843,-0.70356 -3.88503,-1.20975 1.1884,0.45081 2.49592,0.88967 3.91242,0.88367 0.924,0.0776 2.09463,0.24231 2.71353,0.21291 0.8813,0.2483 1.8036,-0.0764 2.7094,-0.12661 0.4751,-0.0634 0.85757,-0.20816 0.98237,-0.3452 0.0601,-0.0702 0.076,-0.11652 0.061,-0.21342 -0.0135,-0.0966 -0.0812,-0.25278 -0.24856,-0.4532 -0.43181,-0.51668 -1.14671,-0.78841 -2.05931,-1.00356 -0.9122,-0.21527 -2.00401,-0.3709 -3.12901,-0.71158 l -0.11679,-0.0295 -0.0429,-0.11265 c 0,0 -0.95563,-2.45944 -1.57923,-3.47473 -1.3128,-2.13556 -2.61552,-2.84157 -4.79403,-4.03903 -2.2785,-1.25308 -5.37222,-1.25297 -8.18192,-1.40094 -0.98459,-0.052 -1.97075,-0.076 -2.95796,-0.076 z m 8.90695,6.83731 c 0.12682,-0.007 0.22804,0.006 0.28526,0.0139 0.59807,0.17533 0.84574,0.0658 1.55804,0.0274 0.3336,-0.0213 0.6578,-0.0321 0.9493,0.0274 0.2921,0.0587 0.5743,0.20782 0.7121,0.49558 l 0.0724,0.14986 -0.11214,0.12144 c -0.282,0.30453 -0.64135,0.44924 -0.99735,0.47594 -0.3569,0.0287 -0.71005,-0.0562 -1.04645,-0.16226 -0.609,-0.20729 -1.20468,-0.56561 -1.66088,-1.0971 0.0687,-0.0327 0.15474,-0.0474 0.23978,-0.0522 z m 2.32028,0.25735 c -0.1289,-0.006 -0.27177,-0.004 -0.43202,0.006 -0.2248,0.0146 -1.02422,0.046 -1.26452,0.0625 0.3468,0.18179 0.65796,0.58153 1.02216,0.59583 0.298,0.1 0.49949,0.10001 0.75809,0.0806 0.1542,-0.0123 0.55078,-0.20457 0.68058,-0.27647 -0.0511,-0.0235 -0.24861,-0.42188 -0.41651,-0.42788 -0.10415,-0.0211 -0.21889,-0.035 -0.34778,-0.0408 z m -4.00958,5.09064 c -2.23072,0.0115 -4.50818,0.0972 -6.88743,0.23875 -8.06132,0.47909 -16.93065,2.0556 -25.4589100000001,4.73304 v 6.12004 C 0.37229,221.12785 0.74715,221.00474 1.11777,220.88164 c 3.8747,-1.28737 11.77912,-3.10058 11.77912,-3.10058 l 0.53434,-0.123 -0.26459,0.48163 c 0,0 -0.46974,0.85182 -1.01234,1.76733 -0.2714,0.45746 -0.56137,0.93006 -0.82217,1.32395 -0.2089,0.31671 -0.37273,0.51926 -0.53743,0.69815 0.1403,0.0163 0.30178,0.0333 0.55138,0.0233 0.6484,-0.0257 1.50254,-0.13401 1.95854,-0.20981 2.6703,-0.44647 5.41963,-1.21634 7.56233,-2.79879 0.8362,-0.61717 1.85006,-1.92679 2.63136,-3.07217 0.782,-1.14499 1.34204,-2.127 1.34204,-2.127 l 0.063,-0.11111 0.12402,-0.009 c 0,0 8.61319,-0.87688 10.93629,-1.11776 1.1932,-0.12326 3.62603,-0.1489 5.93503,-0.25425 1.1541,-0.053 2.2743,-0.12493 3.17811,-0.23564 0.8274,-0.10206 1.61766,-0.52727 1.89756,-0.66921 -5.03924,-0.88222 -9.72046,-1.21498 -14.62805,-1.18959 z M 155.27114,169.8957 c -0.0487,1.5928 -0.88298,3.12453 -0.069,4.78547 0.84232,0.59545 2.20227,2.3981 3.38394,2.98466 1.2372,0.614 2.7048,0.41185 2.63318,1.75793 -0.0719,1.34654 0.64753,2.38752 1.48347,3.02023 0.83499,0.63316 3.16287,1.59971 4.2596,2.08603 1.09731,0.48618 3.66199,0.76993 2.63317,1.75799 -1.02822,0.98798 -0.88193,1.24922 -1.50877,2.2187 -0.62619,0.96896 -1.30878,0.73241 -2.02845,-0.30916 -0.71999,-1.04085 -1.28747,-1.68586 -2.65822,-2.2939 -1.37123,-0.60786 -2.9796,-0.53329 -4.85581,-0.4463 -1.87631,0.087 -3.64295,0.006 -5.27002,-0.69586 -0.82112,-0.35479 -1.64686,-1.32976 -2.2303,-1.85262 l -0.0117,0.0126 c 0.30708,2.13723 1.4733,3.92177 2.93101,5.58308 l -0.0861,-0.0237 c -0.17771,0.629 -0.40352,1.39448 -0.30419,2.08301 0.0923,0.65775 0.52414,1.22974 1.52228,1.50623 -0.0755,0.0454 -0.14772,0.0904 -0.20043,0.12621 -0.0572,0.0382 -0.0978,0.0663 -0.1265,0.0985 -0.048,0.0481 -0.0467,0.10589 -0.0482,0.17478 -0.0105,0.0695 -0.007,0.15428 0.0277,0.25229 0.0318,0.19787 0.0741,0.45527 0.1562,0.74459 0.15817,0.57933 0.42558,1.28867 0.78574,1.90181 0.32819,0.55828 0.73697,1.02779 1.22231,1.25086 -0.0424,0.0441 -0.0753,0.0745 -0.10739,0.1342 -0.0547,0.11558 -0.1139,0.25918 -0.16298,0.42146 -0.0989,0.32526 -0.17684,0.72774 -0.22738,1.13238 -0.0501,0.40537 -0.0721,0.81274 -0.0544,1.14685 0.0183,0.16649 0.0346,0.31491 0.0643,0.43873 0.0316,0.1231 0.0707,0.22268 0.1452,0.28984 0.2468,0.22468 0.6245,0.4432 1.05181,0.64163 -1.43866,0.27616 -2.75187,1.60878 -3.11897,2.99869 -0.081,0.30842 0.008,0.60667 0.14976,0.88761 0.12608,0.26873 0.28399,0.52586 0.38148,0.77515 -0.52447,0.39648 -1.46084,1.12699 -2.17536,1.98236 -0.36515,0.43729 -0.6706,0.90436 -0.82622,1.37634 -0.15558,0.47151 -0.1581,0.95337 0.0907,1.39432 0.0152,0.0103 0.0152,0.0103 0.0153,0.0114 -0.53979,0.17903 -1.0131,0.43476 -1.3624,0.80758 -0.34992,0.37273 -0.57243,0.8631 -0.61126,1.4935 -0.0121,0.10032 0.0558,0.17866 0.11757,0.26453 0.0637,0.0854 0.15433,0.17509 0.23788,0.26265 0.0831,0.088 0.16352,0.17534 0.2165,0.24832 0.0503,0.0729 0.0643,0.12743 0.0611,0.13472 l 0.15576,0.0414 c 0.0352,-0.10124 -0.0306,-0.18736 -0.0874,-0.27415 -0.0598,-0.0861 -0.14612,-0.17541 -0.23049,-0.26397 -0.0842,-0.0888 -0.16819,-0.17678 -0.22736,-0.25204 -0.0566,-0.0755 -0.082,-0.14212 -0.0823,-0.15413 0.035,-0.59793 0.24258,-1.04608 0.56765,-1.39307 0.32512,-0.34661 0.77309,-0.59128 1.29633,-0.76434 l -0.0507,-0.14125 c 0.15773,0.28851 0.20976,0.48932 0.31342,0.65462 0.10621,0.17028 0.27747,0.28783 0.64486,0.39134 l 0.0432,-0.15613 c -0.3513,-0.0989 -0.46545,-0.18385 -0.55175,-0.32113 -0.0825,-0.13767 -0.13965,-0.35024 -0.32012,-0.67173 -0.22202,-0.39762 -0.22153,-0.82291 -0.0805,-1.2644 0.14574,-0.44198 0.43932,-0.89532 0.79627,-1.32309 0.68425,-0.81945 1.58003,-1.52383 2.10764,-1.92377 0.0592,0.19141 0.1161,0.39774 0.18165,0.60176 0.0773,0.24609 0.17091,0.47639 0.33417,0.62466 0.55416,0.50529 1.35948,0.76294 1.78801,1.15391 l 0.10909,-0.11974 c -0.47461,-0.43315 -1.27248,-0.68428 -1.78772,-1.15401 -0.12128,-0.11044 -0.21301,-0.31643 -0.28859,-0.55403 -0.0723,-0.23708 -0.13769,-0.50271 -0.22153,-0.73216 -0.10373,-0.28506 -0.27964,-0.55865 -0.40687,-0.82688 -0.12613,-0.26919 -0.20458,-0.52463 -0.13869,-0.7776 0.37004,-1.40079 1.78768,-2.78555 3.23546,-2.93003 l -0.001,-0.0111 c 0.26508,0.10901 0.52272,0.22635 0.81203,0.30225 0.87908,0.23023 1.82084,0.27639 2.50021,-0.10383 0.12022,-0.0677 0.19734,-0.17262 0.24495,-0.28874 0.0465,-0.11714 0.0655,-0.24621 0.0811,-0.37882 0.0314,-0.26344 0.0282,-0.54014 0.11542,-0.73274 0.0984,-0.22062 0.10278,-0.54372 0.0673,-0.89011 0.0162,0.0561 0.03,0.11709 0.0296,0.17807 0.31049,2.11328 -0.74759,4.31008 -1.8648,6.13038 -1.24308,2.0255 -3.96188,4.34685 -5.14311,4.93895 -1.18146,0.59198 -3.74352,3.26242 -5.50766,5.76208 -1.76479,2.49928 -2.94677,5.65934 -2.95306,8.73218 -0.005,2.46293 0.89493,5.01478 2.33968,7.00981 1.49111,2.05898 3.62238,4.07792 6.12003,4.55102 1.62056,0.30683 3.65665,-0.0842 4.77511,-1.29576 1.05935,-1.14787 1.69089,-3.2832 0.861,-4.60661 -0.77427,-1.23382 -2.98923,-1.93141 -4.21685,-1.14689 -0.88665,0.56671 0.41338,2.64089 -0.52739,3.11326 -0.64436,0.3233 -1.5776,-0.35351 -1.92576,-0.98559 -0.63181,-1.14662 -0.50822,-2.92747 0.35598,-3.91122 1.19878,-1.36415 3.57674,-1.7045 5.31731,-1.18614 2.58076,0.76736 5.1814,3.12868 5.64006,5.78164 0.51471,2.97646 -1.29085,6.52551 -3.78176,8.23415 -2.32356,1.59357 -5.74117,1.34626 -8.43664,0.52549 -3.18813,-0.97116 -5.99334,-3.37238 -7.93743,-6.07895 -1.87397,-2.60937 -2.94805,-5.91423 -3.10889,-9.1229 -0.17294,-3.29418 1.40021,-7.45188 2.23887,-9.63953 0.72184,-1.88274 2.56512,-7.38721 3.2865,-9.67004 -1.32309,0.35108 -3.12198,1.38424 -2.89072,1.24571 0.92421,-0.55351 0.42177,-2.33248 -0.5454,-2.46523 0.72052,-0.1282 1.44077,-0.24963 2.08128,-0.42291 0.8776,-0.23768 1.62357,-0.57294 1.98985,-1.20439 l -0.28108,-0.16305 c -0.29344,0.50588 -0.94673,0.82487 -1.79347,1.05408 -0.77909,0.21133 -1.70732,0.34713 -2.61847,0.52023 0.26947,-0.53459 0.58255,-1.29042 0.44459,-1.70401 -0.1562,-0.46523 -1.03286,-0.94736 -1.58079,-1.20907 1.95651,-0.27004 3.95751,-0.4016 5.44401,-1.73277 l -0.21697,-0.24164 c -1.45224,1.30055 -3.49005,1.38992 -5.55774,1.69382 0.39588,-0.2922 1.70011,-1.34094 1.41154,-2.27236 -0.23023,-0.74458 -0.75063,-1.2365 -1.06083,-1.47609 0.72236,-0.12236 1.58036,-0.0172 2.43497,0.0836 0.93144,0.107 1.85995,0.20386 2.62923,-0.0941 l -0.11771,-0.30245 c -0.66194,0.25488 -1.54801,0.17901 -2.47509,0.076 -0.69573,-0.0804 -1.41255,-0.17601 -2.08496,-0.13385 -0.16553,0.0189 -0.32918,0.0301 -0.48893,0.0577 1.22594,-1.33862 0.27842,-4.25757 -0.3223,-5.45736 0.0471,0.099 3.41734,1.55069 5.0401,1.59891 -0.28378,-1.88829 -0.79419,-4.00828 -3.40014,-9.31352 -0.75538,-0.98201 -0.97703,-1.47704 -0.93614,-2.2262 0.0392,-0.74905 -2.09158,-3.46073 -2.04009,-4.19759 0,0 2.25453,0.65024 2.56001,-0.002 0.30565,-0.65218 -0.27447,-1.70277 -0.77965,-2.5161 -0.40123,-0.64535 2.56663,-0.21991 3.04588,-0.74506 0.47925,-0.52605 -0.47731,-2.02371 -0.0329,-2.3798 0.44488,-0.35631 2.29158,0.42876 2.62204,0.3122 0.33052,-0.11596 0.0645,-1.57005 0.47618,-1.64994 0.41172,-0.08 1.49763,1.1306 1.95185,1.15174 0.45428,0.0189 0.12877,-1.9984 0.73876,-1.9046 0.44545,0.0687 1.49588,1.58202 1.89487,1.49683 1.59581,-0.34288 2.47158,-1.7261 2.47158,-1.7261 z m -1.232,6.74362 c -0.93866,0.0435 -1.66769,0.84359 -1.62417,1.78241 0.0438,0.93924 0.84353,1.66765 1.78219,1.62413 0.93876,-0.0435 1.66818,-0.84283 1.62462,-1.78207 -0.0437,-0.93881 -0.84378,-1.66802 -1.78264,-1.62447 z m 0.0145,0.32436 c 0.68051,-0.0317 1.2653,0.43106 1.41014,1.07227 -0.18468,-0.41395 -0.61034,-0.6955 -1.08958,-0.67328 -0.62417,0.029 -1.10971,0.5619 -1.0809,1.18626 0.0303,0.62429 0.56188,1.10986 1.18596,1.08095 0.073,-0.004 0.14153,-0.0175 0.20919,-0.028 -0.15503,0.0696 -0.32554,0.1127 -0.50695,0.12074 -0.76359,0.0354 -1.40765,-0.55203 -1.44289,-1.31553 -0.0345,-0.76361 0.55137,-1.40765 1.31507,-1.44305 z m 0.33571,0.72302 c 0.44881,-0.0208 0.8261,0.32317 0.84693,0.77214 0.0211,0.44851 -0.32284,0.82639 -0.77215,0.84725 -0.44871,0.0208 -0.82585,-0.32358 -0.84673,-0.77218 -0.0201,-0.44912 0.32284,-0.82635 0.77195,-0.84721 z m -0.36247,10.87742 c 0.8641,0.97802 1.82717,1.9146 2.77342,2.85564 -0.0202,-0.0101 -0.0303,-0.01 -0.0503,-0.009 -0.0853,-0.007 -0.18407,0.009 -0.28997,0.0308 -0.21016,0.0476 -0.4537,0.14669 -0.69118,0.25879 -0.18777,0.0875 -0.35424,0.18215 -0.51168,0.27198 l 0.0137,-0.022 c -1.06267,-0.24853 -1.43765,-0.78124 -1.52927,-1.41781 -0.0874,-0.62245 0.11215,-1.35183 0.28748,-1.97229 z m 2.66791,3.01164 c 0.0221,-5.3e-4 0.039,-0.002 0.0533,0.009 v 0 c 0.0593,0.008 0.0968,0.0204 0.118,0.0403 0.47692,0.52747 1.63751,1.50028 2.96008,3.37567 -0.11092,0.16808 -0.27824,0.3016 -0.46665,0.42733 -0.20504,0.13547 -0.42544,0.26388 -0.58908,0.44294 -0.63717,0.69947 -1.18841,0.83369 -1.67635,0.6685 -0.48811,-0.16576 -0.92669,-0.65472 -1.27634,-1.25087 -0.35041,-0.59579 -0.61405,-1.29554 -0.76986,-1.86247 -0.0685,-0.28506 -0.1301,-0.53445 -0.15257,-0.72078 -0.0104,-0.0948 -0.0195,-0.17031 -0.0246,-0.22396 0.0111,-0.0459 0.0187,-0.0768 0.0187,-0.0774 0.0127,-0.0127 0.0516,-0.0342 0.0965,-0.0706 0.0523,-0.0364 0.13062,-0.0858 0.21863,-0.13818 0.17545,-0.10447 0.40232,-0.22798 0.63365,-0.33662 0.23203,-0.10858 0.46893,-0.2031 0.65992,-0.24759 0.0728,-0.015 0.13669,-0.0241 0.1911,-0.026 z m 3.31357,3.44047 c 0.54117,0.76272 0.99418,1.56087 1.30933,2.41369 l -0.0937,0.0356 c 0.0937,0.24886 0.21313,0.68869 0.27214,1.12169 0.0705,0.4316 0.0716,0.86258 -0.0208,1.06916 -0.10707,0.2407 -0.10313,0.53043 -0.12872,0.78204 -0.0154,0.12549 -0.0389,0.24179 -0.0684,0.33357 -0.0431,0.0931 -0.0895,0.16126 -0.17358,0.20848 -0.6176,0.3454 -1.5235,0.31244 -2.37961,0.0889 -0.85638,-0.22325 -1.662,-0.63751 -2.0689,-1.00829 -0.0331,-0.0268 -0.0686,-0.10237 -0.0975,-0.20976 -0.027,-0.10819 -0.0493,-0.24767 -0.0598,-0.40687 -0.0251,-0.32007 0.009,-0.72055 0.0535,-1.11831 0.0489,-0.39766 0.12688,-0.7933 0.22166,-1.10563 0.0433,-0.15553 0.099,-0.29155 0.15168,-0.39433 0.0414,-0.0717 0.0703,-0.10207 0.10472,-0.13749 0,0 0,0 0,0 0.55069,0.18697 1.18618,0.0146 1.84843,-0.71201 0.13968,-0.1535 0.34893,-0.2791 0.55866,-0.41761 0.20963,-0.13855 0.42034,-0.29301 0.55084,-0.52091 z m -18.17039,2.57702 0.0122,0.0104 c 0,0 -0.0122,-0.0104 -0.0122,-0.0104 0.011,-5.3e-4 0.0137,-0.0128 0.0137,-0.0128 z m -0.15534,3.95747 0.0186,0.0778 c -0.0525,-0.0204 -0.0788,-0.031 -0.0788,-0.031 0,0 0.032,-0.0201 0.0675,-0.0452 z m 1.58167,3.47667 c -0.1307,0.0621 -0.26494,0.15887 -0.4026,0.28863 0,0 0.0659,-0.10501 0.15776,-0.27106 l 0.0189,0.0254 c 0.0789,-0.0147 0.15895,-0.0293 0.23881,-0.0441 z M 142.00633,-7.8000106 c 0.50492,6.733503 3.85307,12.686461 8.84339,16.661516 l -0.40256,0.553972 c -0.9313,0.12477 -1.99715,0.8735316 -2.78484,1.9559526 -1.1961,1.645599 -1.39127,3.542487 -0.43667,4.235917 v -0.0041 c 0.9548,0.69343 2.69782,-0.0784 3.89382,-1.724442 0.898,-1.23652 1.25819,-2.665879 0.90589,-3.592029 l 0.26406,-0.3632856 c 3.77215,2.5649846 8.32355,4.0659016 13.21832,4.0659016 4.7943,0 9.25793,-1.440682 12.98369,-3.909839 l 0.22376,0.307475 c -0.1695,0.92377 0.213,2.168975 0.99891,3.252515 1.1957,1.64603 2.93881,2.418206 3.89381,1.723926 v -0.0036 c 0.95421,-0.69394 0.75884,-2.590011 -0.43666,-4.235401 -0.8993,-1.2356086 -2.14736,-2.0208786 -3.13676,-1.9724886 l -0.0863,-0.118856 c 5.11048,-3.974269 8.54822,-10.00217501 9.06043,-16.833134 h -3.72691 c -0.49639,5.619868 -3.32002,10.554709 -7.506,13.843083 l -1.76268,-2.426209 c 0.6858,-0.75408 0.91919,-1.549119 0.58859,-2.004529 -0.2184,-0.29795 -0.65679,-0.416325 -1.21749,-0.328145 0.2579,-0.50654001 0.28017,-0.96055201 0.061,-1.25987201 -0.2427,-0.33345 -0.75889,-0.440865 -1.40509,-0.293005 0.3405,-0.56882 0.39745,-1.09413299 0.15555,-1.42730299 -0.3311,-0.45445 -1.15861,-0.477804 -2.08721,-0.05684 l -0.82064,-1.097608 c 1.47578,-1.27952 2.5548,-3.015448 2.97242,-4.949568 h -3.04735 c -0.35054,0.950628 -0.96137,1.830083 -1.72445,2.542997 l -1.90065,-2.542997 h -2.08876 l 2.58847,3.562573 c -0.80735,0.438193 -1.69126,0.695565 -2.57968,0.695565 -0.99913,0 -1.99143,-0.328169 -2.87631,-0.870748 l 2.39158,-3.38739 h -2.06706 l -1.67483,2.305285 c -0.64834,-0.667078 -1.16631,-1.458597 -1.47846,-2.305285 h -3.04736 c 0.39631,1.835506 1.38737,3.493156 2.74867,4.751131 l -0.98599,1.357023 c -0.9748,-0.47722 -1.86645,-0.47819 -2.21485,0 -0.2415,0.3333 -0.18382,0.85816299 0.15658,1.42730299 -0.6465,-0.14803 -1.1628,-0.0394 -1.4056,0.292489 -0.2165,0.29936 -0.1941,0.753464 0.0615,1.25935401 -0.5615,-0.0888 -1.00042,0.03007 -1.21802,0.329696 -0.3461,0.47838 -0.0722,1.325928 0.68472,2.105298 l -1.56115,2.149223 c -4.06612,-3.287289 -6.79917,-8.149484 -7.28689,-13.671517 z m 18.90375,5.824968 c 1.35779,0.844963 2.93804,1.33949799 4.59766,1.33945299 1.55457,0 3.03843,-0.43555599 4.33616,-1.18493999 l 0.79943,1.10070699 c -0.7549,0.778961 -1.03183,1.627458 -0.68523,2.10529801 0.243,0.33327 0.7585,0.440549 1.4056,0.292489 -0.3412,0.56945 -0.39836,1.094 -0.15606,1.42782 0.2175,0.29879 0.65668,0.416465 1.21698,0.328146 -0.2576,0.50629 -0.28068,0.961325 -0.061,1.260905 0.3484,0.477339 1.24065,0.47712 2.21485,0 l 1.73788,2.391585 c -3.10866,2.016779 -6.81708,3.1910186 -10.80863,3.1910186 -4.09275,0 -7.89061,-1.2312306 -11.04636,-3.3429476 l 1.58647,-2.183329 c 0.9291,0.41933 1.75703,0.395582 2.08773,-0.05633 0.2164,-0.299541 0.19368,-0.753895 -0.062,-1.259355 0.5614,0.088 1.00041,-0.02936 1.21801,-0.329696 0.2418,-0.33378 0.18465,-0.85849 -0.15555,-1.42782 0.6464,0.14801 1.163,0.03903 1.4056,-0.292489 0.3299,-0.45540001 0.0957,-1.24948501 -0.58963,-2.00349501 z m 42.67133,116.1472426 0.0931,-4.47014 -11.47735,-0.70198 -0.12636,1.78158 10.18838,-0.0607 -0.23674,3.34067 m -96.93751,-8.47218 c 0.0104,1.54231 0.17476,3.133 0.49952,4.75603 38.312,8.49412 68.14112,10.67332 101.77019,7.66937 0.54623,-1.42349 0.94911,-2.88766 1.19357,-4.39423 -29.09524,1.09826 -58.51744,4.62016 -103.46328,-8.03117 z m 0.579,5.13863 c 0.42094,1.95749 1.07694,3.96068 1.98201,5.9852 36.02731,7.79349 64.65523,9.91332 96.41088,7.32797 1.29577,-1.80668 2.36032,-3.69166 3.15189,-5.65583 -33.54469,2.97958 -63.34964,0.79844 -101.54478,-7.65734 z m 2.16561,6.38925 c 1.10552,2.38894 2.55979,4.80367 4.38583,7.20403 31.43527,6.45934 57.41015,8.47103 85.32169,6.71461 2.40601,-2.07714 4.51753,-4.2807 6.24343,-6.61472 -31.59113,2.54312 -60.13481,0.42408 -95.95095,-7.30392 z m 4.71768,7.63514 c 1.77366,2.2738 3.88358,4.53191 6.35107,6.73887 25.02205,4.91679 46.68568,6.95236 68.88359,6.46622 3.38568,-2.01993 6.53083,-4.19629 9.30384,-6.53703 -27.64332,1.69845 -53.43807,-0.30572 -84.5385,-6.66806 z m 46.82575,-73.090266 -4.04304,62.415016 c 0.55621,0.21713 1.09457,0.30035 1.59124,0.0733 l 4.04093,-62.384398 z m -1.17274,4.237506 c -17.62051,14.450766 -35.79676,25.709544 -49.44981,43.433199 16.81271,6.023141 30.40436,10.106901 46.4038,9.399061 -2.47187,0.33036 -4.80596,-33.732637 3.04601,-52.83226 z m 3.49487,1.703438 c 13.17212,17.65818 21.13559,28.755491 33.74394,48.069592 -24.95831,-1.17738 -25.90619,2.66104 -36.76403,1.95745 7.41197,-13.702081 1.5372,-43.33379 3.02009,-50.027042 z m 0.19334,-5.778106 c 2.38502,1.683565 7.71941,2.687783 10.26378,3.723198 -2.45897,0.412975 -8.07381,0.690819 -10.45712,1.317183 1.05956,-0.930923 0.53749,-3.892219 0.19334,-5.040381 z m -56.4152,53.922588 c 1.44861,-2.18621 2.19104,-3.41639 4.01331,-6.521911 M 9.9999999e-6,89.339797 v 4.015772 C 4.66633,95.518449 8.3419,99.436419 10.18801,104.27067 l -2.95279,0.95963 c -0.5052,-0.88532 -1.18842,-1.35299 -1.72392,-1.17977 -0.3516,0.11503 -0.59925,0.49575 -0.68885,1.05627 -0.4017,-0.40136 -0.82706,-0.56332 -1.17926,-0.44856 -0.3927,0.12784 -0.6539,0.5859 -0.7121,1.24592 -0.4372,-0.49941 -0.91819,-0.71634 -1.30999,-0.58963 -0.5341,0.17514 -0.81325,0.95484 -0.70125,1.96733 L 9.9999998e-6,107.5945 v 6.85901 C 0.37433,113.48561 0.58188,112.4464 0.58188,111.37359 c 0,-0.68969 -0.0876,-1.36485 -0.24804,-2.01693 l 1.11517,-0.36225 c 0.5081,0.95912 1.22919,1.48368 1.79059,1.30225 0.3921,-0.12767 0.65372,-0.58539 0.71262,-1.24644 0.4367,0.50011 0.91678,0.71642 1.30948,0.59015 0.3514,-0.11545 0.59965,-0.49651 0.68885,-1.05679 0.4024,0.40149 0.82664,0.56371 1.17874,0.44959 0.5614,-0.18351 0.83678,-1.03167 0.68368,-2.10633 l 2.93677,-0.95447 c 0.48242,1.71722 0.74569,3.52718 0.74569,5.40122 0,6.35144 -2.96634,11.98983 -7.58869,15.62127 l -1.76268,-2.42569 c 0.6858,-0.75408 0.9192,-1.54912 0.5886,-2.00453 -0.2184,-0.29795 -0.6568,-0.4158 -1.2175,-0.32762 0.2579,-0.50655 0.28018,-0.96107 0.061,-1.26039 -0.2427,-0.33345 -0.75889,-0.44087 -1.40509,-0.29301 0.3405,-0.56882 0.39745,-1.09413 0.15555,-1.4273 C 0.24572,119.14525 0.13449,119.0604 3e-5,119.00104 v 6.9143 c 0.22636,-0.0597 0.46508,-0.14874 0.709,-0.2682 l 1.73839,2.39159 C 1.6676,128.54466 0.85066,128.99736 3e-5,129.39162 v 4.01577 c 1.6353,-0.62273 3.18391,-1.42221 4.62245,-2.37556 l 0.22376,0.30747 c -0.1695,0.92377 0.21301,2.16898 0.99891,3.25252 1.1957,1.64603 2.93882,2.4182 3.89382,1.72392 v -0.003 c 0.9542,-0.69395 0.75883,-2.59053 -0.43667,-4.23592 -0.8993,-1.23561 -2.14736,-2.02088 -3.13676,-1.97249 l -0.0863,-0.11886 c 5.54979,-4.31585 9.12709,-11.05391 9.12709,-18.61178 0,-2.27146 -0.3239,-4.46843 -0.92656,-6.54844 l 0.22583,-0.0734 c 0.826,0.44664 2.12814,0.46733 3.40134,0.0522 1.935,-0.62871 3.20814,-2.04798 2.84324,-3.17035 v 0.003 c -0.3645,-1.12266 -2.22857,-1.52252 -4.16357,-0.894 -1.4534,0.47353 -2.58519,1.41716 -2.84479,2.3735 l -0.0269,0.009 C 11.34077,96.792429 6.3168,91.745394 0,89.339797 Z M 215.08379,161.80669 l 1.8952,-0.42805 c 1.4048,0.25948 1.1191,-0.6135 2.0054,-1.22756 l 1.123,-2.77846 -0.2764,-3.27118 c -0.2372,-4.94957 1.7163,-3.39658 3.0967,-4.53078 0.9867,-0.92714 -3.2806,11.61104 -2.782,11.47145 1.0375,-0.2917 3.0092,-10.83199 4.329,-11.78457 0.1586,-0.88868 3.0726,-0.97303 3.5055,-0.40245 0.6863,0.90387 -14.816,25.16134 1.262,0.50865 0.8913,-0.71815 3.1534,0.47166 3.8246,0.94669 1.5702,-1.06337 -11.9932,12.59459 -11.6312,12.70554 0.363,0.1114 11.1875,-11.32368 12.5181,-12.23216 1.4356,0.13811 3.0421,0.55774 3.9578,1.96125 -2.9045,1.73249 -15.931,10.4748 -15.5233,10.87783 0.4066,0.40298 15.6471,-10.57996 16.1109,-10.28623 0.8698,0.55268 2.4722,2.8266 2.2143,3.17537 l -17.929,8.09724 18.4534,-7.27667 c 0.9947,1.2696 1.6038,2.01434 1.5345,3.0297 l -19.1348,5.07975 19.3312,-4.27508 c 0.1345,0.84509 0.6645,1.31963 0.282,2.64981 l -19.7443,2.57051 19.9873,-1.84905 c 0.2254,0.70429 0.4834,1.57637 -0.1527,2.36172 0.06,0.84252 -18.5544,-0.15171 -19.1973,0.33276 l 19.186,0.54641 c 0.8987,0.51191 0,2.2585 -0.4744,2.83314 -14.9512,-0.81061 -12.1812,-1.90656 -18.908,-2.28578 l 18.7268,2.99396 c -0.3599,0.69219 -0.3899,1.4857 -1.3045,2.00802 l -17.5318,-4.16213 16.971,4.69174 c 0,-0.0528 -0.5147,2.20956 -1.9368,1.4865 l -15.1887,-5.34073 14.6471,5.92174 c -0.3958,1.02667 -1.2055,1.6603 -2.6411,1.6972 l -12.4685,-6.61466 12.2091,6.97075 c -0.9994,0.97248 -2.2641,0.96408 -3.0261,0.90583 l -9.3572,-7.23812 8.7808,7.41038 c 0.082,0.47646 -3.1961,1.14535 -3.6564,-0.0922 -0.3069,-0.32673 -4.7016,-5.92032 -4.7016,-5.92032 l -1.9148,-0.33481 c 0,0 -1.3059,-0.16712 -1.697,0.15899 -0.3907,0.32665 -1.2999,1.01715 -1.2999,1.01715 0,0 -2.1099,-3.55513 -2.1551,-4.16989 -0.051,-0.61528 -0.995,-4.02841 -0.8982,-4.40649 0.091,-0.37781 -0.1525,-1.90788 -0.1525,-1.90788 z M 89.95506,5.4089604 c 0.2222,1.57798 1.2187,3.0095 0.5908,4.7493596 -0.7723,0.68382 -1.9274,2.62412 -3.038,3.33614 -1.1628,0.74535 -2.6437,0.70457 -2.4256,2.0348 0.2184,1.33065 -0.3831,2.44392 -1.145,3.164091 -0.7609,0.7205 -2.9694,1.935329 -4.0065,2.538428 -1.0377,0.60303 -3.5561,1.164971 -2.4256,2.03486 1.1299,0.869871 1.013,1.145511 1.7419,2.04079 0.7282,0.894842 1.3809,0.5852 1.9826,-0.528688 0.6021,-1.1132 1.0958,-1.816291 2.392,-2.5703 1.2967,-0.753872 2.9036,-0.855282 4.7781,-0.973572 1.8746,-0.1183 3.6219,-0.391139 5.1626,-1.266841 0.7775,-0.442277 1.4919,-1.501538 2.0148,-2.084948 l 0.013,0.0112 c -0.072,2.157979 -1.0365,4.059139 -2.3042,5.869609 l 0.083,-0.033 c 0.2453,0.605848 0.5533,1.34212 0.5297,2.037369 -0.02,0.6639 -0.3868,1.279601 -1.3488,1.663372 0.08,0.0369 0.1567,0.0737 0.213,0.103579 0.061,0.0317 0.1044,0.0552 0.1365,0.0841 0.053,0.0426 0.058,0.100158 0.067,0.168468 0.018,0.0679 0.024,0.15258 0,0.253812 -0.01,0.20016 -0.024,0.46064 -0.074,0.75719 -0.094,0.59313 -0.2824,1.32742 -0.5735,1.9762 -0.2653,0.590759 -0.6204,1.102079 -1.0785,1.37678 0.047,0.0392 0.083,0.0658 0.1214,0.121679 0.067,0.108921 0.1415,0.2452 0.208,0.401162 0.1338,0.312518 0.2552,0.704088 0.3496,1.100799 0.094,0.397489 0.1604,0.80001 0.1792,1.13407 0,0.167489 0,0.316799 -0.016,0.443119 -0.018,0.12582 -0.046,0.229071 -0.1127,0.303951 -0.2208,0.25028 -0.5724,0.508709 -0.9755,0.752588 1.4602,0.117502 2.911,1.29885 3.4276,2.640391 0.1142,0.297741 0.058,0.603951 -0.052,0.89866 -0.096,0.280882 -0.2249,0.55371 -0.2946,0.812152 0.5646,0.336867 1.5751,0.960829 2.3787,1.733108 0.4107,0.39483 0.7653,0.82577 0.9715,1.277951 0.2061,0.45172 0.2612,0.93042 0.062,1.395889 -0.014,0.01191 -0.014,0.01191 -0.014,0.01299 0.5561,0.119049 1.0545,0.321598 1.44239,0.654068 0.38851,0.332322 0.66321,0.79547 0.77061,1.41787 0.023,0.0984 -0.036,0.18369 -0.088,0.275781 -0.054,0.0918 -0.1343,0.190889 -0.2078,0.287041 -0.073,0.0965 -0.1434,0.192138 -0.1881,0.27047 -0.042,0.078 -0.05,0.133679 -0.046,0.140579 l -0.15031,0.0582 c -0.046,-0.0968 0.01,-0.18959 0.057,-0.282059 0.05,-0.0921 0.1261,-0.190312 0.2003,-0.287541 0.074,-0.0975 0.1479,-0.19408 0.1985,-0.275349 0.048,-0.0812 0.066,-0.15022 0.065,-0.16219 -0.1,-0.59055 -0.3553,-1.013362 -0.7163,-1.3228 -0.361,-0.30906 -0.833,-0.503381 -1.372,-0.6183 l 0.035,-0.145952 c -0.1253,0.304001 -0.1551,0.509291 -0.2401,0.684922 -0.087,0.180848 -0.2444,0.316389 -0.5983,0.45938 l -0.06,-0.150482 c 0.3384,-0.136689 0.4426,-0.23355 0.5134,-0.379428 0.067,-0.145852 0.1006,-0.363392 0.2449,-0.702651 0.1773,-0.419479 0.1304,-0.842169 -0.058,-1.26563 -0.1931,-0.423439 -0.5344,-0.842031 -0.9359,-1.228291 -0.7696,-0.739878 -1.7369,-1.342289 -2.305,-1.68226 -0.038,0.196731 -0.072,0.408032 -0.1149,0.61799 -0.05,0.25305 -0.1179,0.492191 -0.264,0.657391 -0.4957,0.562751 -1.2681,0.906751 -1.6514,1.34215 l -0.1215,-0.107119 c 0.4245,-0.482352 1.1902,-0.81905 1.6511,-1.342211 0.1085,-0.12302 0.1772,-0.33779 0.2264,-0.58222 0.046,-0.243549 0.082,-0.514729 0.1403,-0.75196 0.072,-0.294679 0.217,-0.585829 0.3142,-0.866351 0.096,-0.28134 0.1461,-0.54382 0.053,-0.788088 -0.5207,-1.352042 -2.081,-2.573811 -3.5359,-2.559431 v -0.01119 c -0.2516,0.13729 -0.4949,0.282051 -0.7742,0.38907 -0.8487,0.324789 -1.7798,0.473461 -2.4966,0.169651 -0.1269,-0.0542 -0.215,-0.150051 -0.275,-0.260282 -0.059,-0.111368 -0.092,-0.23759 -0.122,-0.36771 -0.06,-0.258429 -0.087,-0.533828 -0.1947,-0.715758 -0.1219,-0.208571 -0.1615,-0.529262 -0.164,-0.877462 -0.01,0.0575 -0.017,0.119661 -0.01,0.180242 -0.078,2.134539 1.2135,4.202748 2.5227,5.89025 1.4567,1.87774 4.4126,3.888509 5.6514,4.34816 1.239,0.459509 4.0772,2.834388 6.10361,5.12659 2.027,2.29176 3.5468,5.303949 3.8884,8.357748 0.2739,2.44765 -0.3423,5.08249 -1.5607,7.223281 -1.2575,2.209412 -3.1557,4.448879 -5.58681,5.191739 -1.5774,0.481852 -3.644,0.315323 -4.888,-0.7669 -1.1783,-1.025398 -2.0391,-3.079049 -1.3586,-4.485129 0.635,-1.31095 2.7606,-2.246098 4.0665,-1.60024 0.9432,0.466561 -0.1227,2.670231 0.864,3.03711 0.6758,0.25105 1.5296,-0.523571 1.8067,-1.189868 0.5029,-1.208723 0.1857,-2.96545 -0.7807,-3.849011 -1.3405,-1.225171 -3.7414,-1.303969 -5.415,-0.598752 -2.4816,1.044422 -4.809,3.675462 -4.9754,6.362632 -0.1868,3.01485 1.9953,6.34565 4.6578,7.772241 2.4836,1.330478 5.8538,0.711668 8.44361,-0.398373 3.0631,-1.313288 5.5895,-4.006318 7.2266,-6.90889 1.578,-2.798289 2.285,-6.200629 2.0947,-9.407689 -0.1876,-3.29338 -2.2051,-7.25456 -3.2775,-9.337619 -0.923,-1.792711 -3.356,-7.063142 -4.3222,-9.253612 1.3535,0.204592 3.2544,1.035262 3.0094,0.92279 -0.9791,-0.449339 -0.6738,-2.272509 0.2731,-2.51002 -0.7302,-0.0488 -1.4594,-0.0909 -2.115,-0.193249 -0.8983,-0.14048 -1.6764,-0.392329 -2.1094,-0.98003 l 0.2616,-0.192749 c 0.3469,0.470829 1.0311,0.716619 1.8978,0.852048 0.7975,0.12504 1.735,0.158732 2.6596,0.23136 -0.3262,-0.501989 -0.7199,-1.219139 -0.6279,-1.645309 0.1045,-0.479499 0.9233,-1.05442 1.4394,-1.37437 -1.9743,-0.0549 -3.9777,0.0327 -5.6006,-1.128289 l 0.1893,-0.263882 c 1.5855,1.13429 3.6209,1.000741 5.7094,1.077171 -0.4254,-0.247261 -1.8363,-1.147389 -1.6511,-2.104739 0.1476,-0.765262 0.6112,-1.311042 0.8934,-1.583052 -0.7314,-0.0428 -1.5728,0.155331 -2.4113,0.3488 -0.9142,0.20801 -1.8266,0.40563 -2.6238,0.193392 l 0.084,-0.313492 c 0.6858,0.181121 1.5583,0.009 2.4686,-0.19458 0.6828,-0.155818 1.3849,-0.32912 2.0579,-0.36059 0.1666,7.94e-4 0.3305,-0.006 0.4923,0.004 -1.3647,-1.19683 -0.7414,-4.20175 -0.2752,-5.459931 -0.036,0.103581 -3.2277,1.914371 -4.8355,2.139402 0.076,-1.907982 0.352,-4.071012 2.3634,-9.628961 0.6437,-1.05858 0.81,-1.57484 0.6876,-2.31507 -0.1207,-0.7403 1.7014,-3.668321 1.5698,-4.395161 0,0 -2.1701,0.892411 -2.5449,0.277681 -0.375,-0.61493 0.087,-1.72256 0.5004,-2.5861496 0.3284,-0.68529 -2.5753,0.0615 -3.109,-0.40821 -0.53381,-0.47061 0.2536,-2.06371 -0.227,-2.36918 -0.48111,-0.30563 -2.23111,0.67629 -2.57231,0.59649 -0.3412,-0.0792 -0.2355,-1.55363 -0.6534,-1.58811 -0.418,-0.0346 -1.3653,1.28728 -1.8145,1.35787 -0.4495,0.0684 -0.3461,-1.97241 -0.9422,-1.8126 -0.4353,0.11687 -1.3143,1.73582 -1.7202,1.69468 -1.6237,-0.16667 -2.6452,-1.44605 -2.6452,-1.44605 z m 1.9606,6.5688796 c 0.9378,-0.0592 1.7498,0.65656 1.809,1.59452 0.059,0.9384 -0.6565,1.74975 -1.5943,1.80893 -0.9379,0.0592 -1.7502,-0.65574 -1.8094,-1.59413 -0.059,-0.93797 0.6567,-1.75014 1.5947,-1.80932 z m 0.021,0.32401 c -0.6799,0.0428 -1.2107,0.56657 -1.2847,1.21976 0.1384,-0.43163 0.5308,-0.75795 1.0096,-0.78817 0.6236,-0.0393 1.1644,0.43744 1.2039,1.06121 0.038,0.62387 -0.4374,1.16456 -1.0609,1.20393 -0.073,0.004 -0.1426,-0.002 -0.211,-0.005 0.1617,0.0523 0.3359,0.0765 0.5171,0.0647 0.7629,-0.0481 1.339,-0.70236 1.2907,-1.46514 -0.049,-0.76282 -0.7017,-1.33907 -1.4647,-1.29092 z m -0.2548,0.75534 c -0.4484,0.0283 -0.7859,0.4114 -0.7576,0.85996 0.028,0.44813 0.4111,0.78622 0.86,0.75792 0.4483,-0.0283 0.7856,-0.41178 0.7574,-0.85998 -0.029,-0.44863 -0.4111,-0.78618 -0.8598,-0.7579 z m 1.5474,10.77289 c -0.7522,1.06648 -1.6073,2.10257 -2.4452,3.14126 0.019,-0.0123 0.029,-0.0131 0.049,-0.01431 0.084,-0.01651 0.1839,-0.01159 0.2916,-0.0011 0.2141,0.02439 0.467,0.0963 0.7153,0.181811 0.1962,0.0665 0.372,0.142399 0.5383,0.214508 l -0.016,-0.0204 c 1.0292,-0.363019 1.3438,-0.933469 1.3654,-1.576239 0.019,-0.628269 -0.259,-1.331521 -0.501,-1.92913 z m -2.3233,3.28481 c -0.022,0.0021 -0.039,0.0021 -0.052,0.0145 v 0 c -0.058,0.01479 -0.094,0.0308 -0.1129,0.0529 -0.4165,0.576368 -1.464,1.670029 -2.574,3.67856 0.1286,0.154969 0.3095,0.269431 0.5105,0.373849 0.2186,0.112281 0.4517,0.21587 0.6339,0.376002 0.7097,0.625758 1.2723,0.699018 1.7393,0.48156 0.4671,-0.218041 0.8497,-0.751941 1.1322,-1.382692 0.2833,-0.63047 0.469,-1.35482 0.562,-1.935361 0.037,-0.290837 0.071,-0.545459 0.073,-0.733128 0,-0.0954 7.9e-4,-0.171421 0,-0.225301 -0.016,-0.0444 -0.027,-0.0743 -0.027,-0.0749 -0.014,-0.01119 -0.055,-0.0284 -0.1036,-0.0596 -0.056,-0.0305 -0.1392,-0.071 -0.2324,-0.113498 -0.1858,-0.0847 -0.4248,-0.182711 -0.6666,-0.265459 -0.2425,-0.0826 -0.4883,-0.150712 -0.683,-0.174091 -0.074,-0.007 -0.1385,-0.009 -0.1928,-0.005 z m -2.9183,3.781549 c -0.4547,0.817211 -0.8179,1.660031 -1.0381,2.542159 l 0.097,0.02519 c -0.066,0.257601 -0.1367,0.707818 -0.1481,1.14469 -0.023,0.436708 0.023,0.865238 0.1374,1.060501 0.1327,0.227568 0.1604,0.515987 0.2133,0.763317 0.029,0.123061 0.065,0.236101 0.1044,0.324112 0.053,0.0878 0.1066,0.15053 0.1953,0.188288 0.6516,0.275942 1.5485,0.144312 2.3751,-0.17131 0.8269,-0.31537 1.5825,-0.815078 1.9465,-1.228058 0.03,-0.0303 0.057,-0.109241 0.074,-0.219141 0.015,-0.11049 0.022,-0.251568 0.015,-0.410969 -0.01,-0.320882 -0.088,-0.715211 -0.1752,-1.105781 -0.092,-0.389949 -0.2127,-0.774719 -0.341,-1.074838 -0.06,-0.149871 -0.1302,-0.279001 -0.1938,-0.375423 -0.049,-0.0667 -0.081,-0.0938 -0.1191,-0.125238 0,0 0,0 0,0 -0.527,0.245949 -1.1775,0.143978 -1.9151,-0.506031 -0.1556,-0.137351 -0.3773,-0.23935 -0.6009,-0.35415 -0.2235,-0.11484 -0.4498,-0.24538 -0.6044,-0.457679 z m 18.3431,0.57861 -0.011,0.01169 c 0,0 0.011,-0.01169 0.011,-0.01169 -0.011,5.29e-4 -0.015,-0.01119 -0.015,-0.01119 z m 0.5863,3.916891 -0.01,0.0794 c 0.05,-0.02601 0.075,-0.0394 0.075,-0.0394 0,0 -0.034,-0.01651 -0.072,-0.0376 z m -1.1928,3.628509 c 0.1367,0.0475 0.2807,0.129011 0.4317,0.24297 0,0 -0.077,-0.0972 -0.1864,-0.25223 l -0.016,0.0273 c -0.08,-0.006 -0.1612,-0.0118 -0.2422,-0.01781 z M 90.71736,145.82106 c -0.3028,-0.21034 -1.1324,-0.79748 -2.5932,-1.67743 -1.7,-1.02492 -3.7923,-2.14293 -5.2699,-2.51563 -2.2673,-0.57105 -4.7365,-0.44118 -7.061,0.002 -0.8217,0.15685 -2.0518,0.63947 -3.059,1.0816 -1.0074,0.44328 -1.7989,0.84536 -1.7989,0.84536 l 0.096,-0.35692 -0.3311,0.34761 c 0,0 -5.2926,-3.21425 -8.0737,-4.43883 -4.8264,-2.12552 -9.8165,-3.98723 -14.9607,-5.07738 -2.7524,-0.58355 -5.7407,-1.38371 -8.2658,-0.76239 -2.414,0.59345 -3.8554,0.93867 -5.6757,2.66216 -0.8649,0.81952 -2.4238,2.94804 -2.4238,2.94804 l -0.071,0.0975 -0.1206,-0.001 c -1.1748,0.0382 -2.2693,-0.094 -3.2061,-0.12191 -0.9372,-0.0281 -1.6985,0.0495 -2.2492,0.43698 -0.2135,0.15032 -0.3192,0.28345 -0.3573,0.37332 -0.039,0.0897 -0.036,0.1386 0,0.2219 0.085,0.16465 0.4174,0.40381 0.8599,0.58791 0.862,0.2827 1.6691,0.83448 2.5846,0.8225 0.5903,0.18843 1.7634,0.3321 2.6761,0.49606 1.3668,0.37206 2.7433,0.28641 4.0079,0.15822 -0.9294,0.27523 -2.7981,0.38941 -4.0657,0.1642 -1.6425,-0.4386 -2.6423,-0.70687 -4.2684,-0.50977 -0.4179,0.0615 -0.9703,0.21531 -1.1297,0.3254 -0.015,0.0111 -0.016,0.0116 -0.021,0.0169 7.4856,0.65436 13.8674,1.95372 21.1648,4.3795 11.1361,3.70136 23.3058,10.06448 33.1496,18.21576 4.9222,4.07568 9.2642,8.59884 12.601,13.46239 2.8403,4.13919 4.9491,8.52539 6.072,13.09114 -0.1042,-1.93546 -0.4295,-4.88676 -1.3559,-8.18024 -0.8088,-2.8834 -2.8746,-8.04919 -4.9896,-12.77946 -1.0575,-2.36507 -2.1274,-4.62358 -3.0589,-6.4391 -0.9316,-1.81579 -1.7379,-3.2007 -2.2108,-3.76198 -1.18,-1.40012 -2.5077,-3.01792 -3.5758,-4.38073 -0.534,-0.6814 -1.0018,-1.29873 -1.3566,-1.79543 -0.3551,-0.49668 -0.5908,-0.84441 -0.6857,-1.10316 -0.1516,-0.41623 -0.3962,-1.42368 -0.2304,-2.45806 0.1624,-1.03467 0.8001,-2.10169 2.3228,-2.39467 2.5655,-0.49466 6.2102,-1.7386 6.9243,-1.98412 z m 1.8748,32.36988 c -3.3162,-4.83301 -7.6343,-9.33521 -12.5376,-13.39531 -9.8064,-8.12002 -21.9464,-14.46855 -33.0436,-18.15715 -7.2375,-2.40631 -13.6173,-3.9889 -21.0296,-4.64457 0.2337,0.20948 0.8869,0.82452 1.6597,1.13705 0.8445,0.34064 1.9081,0.69989 3.0092,1.04952 2.2032,0.6988 4.5468,1.35272 5.6675,1.78031 2.1818,0.83337 10.2752,3.90738 10.2752,3.90738 l 0.1177,0.0408 0.032,0.12356 c 0,0 0.287,1.09326 0.7463,2.40151 0.4586,1.30845 1.0996,2.83577 1.7478,3.64816 1.6606,2.08267 4.1172,3.53714 6.5812,4.65888 0.4209,0.19113 1.2182,0.51671 1.8379,0.70918 0.2385,0.0742 0.399,0.0996 0.5387,0.1201 -0.1128,-0.2154 -0.2189,-0.45329 -0.3388,-0.81324 -0.1501,-0.44793 -0.3079,-0.9798 -0.4518,-1.49188 -0.2874,-1.02468 -0.521,-1.96899 -0.521,-1.96899 l -0.1309,-0.53324 0.4846,0.25664 c 0,0 7.1666,3.79524 10.5767,6.0407 4.1078,2.70439 8.4031,5.33664 11.8397,8.92119 2.7531,2.87187 5.9598,7.00861 8.5657,10.81203 1.3034,1.9017 2.4564,3.72021 3.3272,5.2567 0.8708,1.53628 1.4601,2.77551 1.6384,3.59362 0.3358,1.53931 0.221,2.39853 -0.1598,3.1206 -0.3794,0.72201 -0.9644,1.28119 -1.5788,2.37406 -0.5993,1.06746 -1.0933,2.88794 -1.3426,4.7142 -0.2492,1.82555 -0.2528,3.67224 0.056,4.77087 0.1518,0.54226 0.2469,0.9038 0.3209,1.16042 0.093,-0.21412 0.2115,-0.48844 0.3952,-0.84411 0.4015,-0.76578 1.3206,-1.27428 2.2744,-1.55445 0.8611,-0.25297 1.7239,-0.28902 2.3752,-0.0626 1.0895,-1.42001 0.9115,-2.49949 0.8569,-3.74062 l -0.026,-0.6419 0.4494,0.45861 c 0,0 0.5634,0.57537 1.2081,1.27038 0.6443,0.69496 1.3652,1.49858 1.7102,2.00809 0.115,0.16979 0.3787,0.34731 0.7339,0.52228 0.3552,0.17426 0.7932,0.34917 1.2371,0.56802 0.8875,0.43546 1.8247,1.06511 2.1229,2.24852 0.1212,0.48199 0.3969,0.81734 0.764,1.06944 0.3671,0.25204 0.8266,0.41138 1.2774,0.50643 0.7613,0.16041 1.2692,0.11271 1.4762,0.10177 -0.067,-0.38196 -0.5817,-3.55264 -0.8387,-5.10369 -0.3863,-2.32814 -2.2397,-5.09239 -4.0065,-7.24678 -1.7668,-2.15523 -3.433,-3.70823 -3.433,-3.70823 l -0.081,-0.0775 0.012,-0.11474 c 0,0 0.01,-0.23461 0,-0.58352 -0.9718,-5.1272 -3.2226,-10.05083 -6.3935,-14.67184 z M 40.38855,139.13688 c -0.5781,0.39545 -1.2463,0.58751 -1.8882,0.63028 -0.3524,0.0155 -0.7156,0.006 -1.053,-0.11385 -0.337,-0.11784 -0.6463,-0.35049 -0.84,-0.71758 l -0.077,-0.14633 0.1083,-0.12607 c 0.2075,-0.24235 0.5191,-0.31374 0.8164,-0.2949 0.297,0.0179 0.6071,0.11218 0.9238,0.21901 0.70739,0.23086 0.9013,0.40779 1.5904,0.3754 -0.3948,-0.0139 0.1878,-0.0236 0.4198,0.17425 z m -0.905,0.0412 c -0.2278,-0.0781 -0.9919,-0.31511 -1.2053,-0.38734 -0.3043,-0.10248 -0.5502,-0.15555 -0.7623,-0.16855 -0.1638,-0.0376 -0.4576,0.2965 -0.513,0.306 0.1068,0.10302 0.4403,0.39099 0.5861,0.44272 0.2448,0.0856 0.4396,0.13775 0.7533,0.11821 0.3555,0.0804 0.7592,-0.22512 1.1413,-0.31105 z M 236.72554,55.13985 c -0.8867,-0.093 -1.7887,-0.0506 -2.6308,0.121899 -1.0601,0.219731 -2.3048,0.5475 -3.3215,1.076492 -1.0128,0.525388 -1.7757,1.230469 -2.0019,2.211149 0.1116,1.309471 -0.072,2.70569 -0.4425,4.13952 1.1417,-0.131471 2.2069,-0.0995 3.2022,0.0649 v 0 c 3.5546,0.597069 6.2252,2.895679 8.3827,5.4488 1.4387,1.702279 2.664,3.52067 3.8001,5.04425 1.1346,1.521161 2.1902,2.7359 3.20331,3.25361 0.16319,0.0752 0.33189,0.146201 0.50639,0.20724 0.02,0 0.02,0 0.022,0 v 0.0164 c 1.0522,0.363921 2.2974,0.429602 3.4307,0.264401 1.1847,-0.17318 2.2388,-0.60855 2.8142,-1.122249 -0.5196,-0.327181 -1.0061,-0.7478 -1.4622,-1.242861 -1.3779,-1.498921 -2.5349,-3.664649 -3.7026,-6.01658 -2.3368,-4.70353 -4.7297,-10.1375 -8.6072,-12.408109 v 0 0 c -0.5155,-0.322152 -1.0889,-0.571802 -1.6921,-0.75179 0,0 -0.021,0 -0.022,0 v 0 c -0.3587,-0.1054 -0.727,-0.18583 -1.1004,-0.24175 v 0 c -0.1227,-0.01651 -0.2526,-0.0312 -0.3787,-0.0457 z m 3.8869,0.770851 c 3.9049,2.538478 6.20261,7.887829 8.4547,12.421248 1.163,2.341271 2.3114,4.467262 3.6061,5.874782 1.1177,1.215789 2.30011,1.89466 3.7545,1.79818 -1.3218,-0.956551 -2.2764,-2.44905 -3.1253,-4.181711 -0.9866,-2.01586 -1.8363,-4.37048 -2.9215,-6.65874 -1.9016,-4.00998 -4.478,-7.795529 -9.7685,-9.253759 z m -15.7796,1.166669 c -0.1166,0.0766 -0.2494,0.205439 -0.3722,0.465381 -0.1382,0.292799 -0.2638,0.69677 -0.3736,1.17569 -0.22,0.959289 -0.3842,2.220539 -0.5877,3.56099 -0.3869,2.550138 -0.9194,5.369819 -2.3533,7.13959 0.8412,0.63622 1.734,1.014878 2.6514,1.461739 2.5322,-4.033841 4.5979,-8.544431 4.3513,-12.130321 -0.1861,-0.0889 -0.559,-0.156019 -0.982,-0.235609 -0.4559,-0.0795 -0.9652,-0.194169 -1.2854,-0.60399 l -0.033,-0.0352 c 0,0 0,0 -0.02,0 -0.032,-0.0266 -0.073,-0.0659 -0.1204,-0.115948 -0.104,-0.096 -0.2491,-0.220832 -0.3969,-0.339331 -0.1486,-0.118671 -0.3037,-0.22843 -0.4216,-0.29841 -0.039,-0.0204 -0.06,-0.02511 -0.074,-0.0342 z m -0.9742,0.173379 -0.1041,0.345152 c -0.304,-0.0939 -1.2892,-0.29999 -2.1895,-0.460502 -0.45,-0.0784 -0.8855,-0.151289 -1.2177,-0.197398 -0.1667,-0.02029 -0.3077,-0.0363 -0.4066,-0.0484 -0.054,-0.0164 -0.084,-0.0164 -0.1116,0 -0.021,0 -0.021,0 -0.021,0 h -0.02 l -0.049,0.0164 c -0.031,0 0,-0.01741 -0.039,0.0266 -0.031,0.0456 -0.075,0.16287 -0.1019,0.33069 -0.064,0.332168 -0.072,0.85317 -0.072,1.455129 -0.02,1.204539 -0.02,2.75106 -0.4887,4.08397 -0.1976,0.543301 -0.6896,1.473039 -1.1021,2.395271 -0.2063,0.460801 -0.392,0.916411 -0.505,1.292928 -0.1063,0.359141 -0.1241,0.652582 -0.1052,0.752412 0.021,0 0.039,0.0467 0.1019,0.0953 0.083,0.0628 0.2225,0.145741 0.3859,0.228579 0.3278,0.16541 0.7704,0.34059 1.2218,0.49366 0.4515,0.15454 0.9141,0.285011 1.2843,0.367019 0.1853,0.0395 0.3484,0.0653 0.4686,0.0798 0.1166,0.0164 0.2125,0 0.1749,0.0164 l 0.039,0.107278 c 1.038,-1.620009 1.5216,-4.12065 1.8717,-6.425718 0.2024,-1.33259 0.3657,-2.59737 0.5962,-3.604141 0.114,-0.503701 0.2459,-0.942801 0.4169,-1.303049 0,-0.01641 0,-0.01641 0.023,-0.01791 z m -7.0024,0.36199 c -0.1663,-0.02029 -0.3109,-0.0164 -0.4111,0 -0.1029,0.0204 -0.1468,0.0505 -0.1694,0.0784 -0.024,0.0258 -0.054,0.0724 -0.042,0.207039 0.1116,1.577282 -0.4779,3.949631 -2.4943,5.255681 -0.196,0.12796 -0.2293,0.21436 -0.2332,0.24598 0,0.0267 0.018,0.0918 0.1142,0.20392 0.2188,0.223359 0.7604,0.5124 1.3667,0.74748 0.8718,0.339291 1.8582,0.599559 2.3539,0.721611 0.03,-0.0457 0.041,-0.0936 0.065,-0.139091 0.424,-0.94583 0.9263,-1.91643 1.0857,-2.35444 0.4322,-1.185889 0.4439,-2.672501 0.4536,-3.87994 0,-0.14329 0,-0.28184 0.019,-0.416081 -0.072,-0.0331 -0.8171,-0.382469 -1.5463,-0.572159 -0.1917,-0.0474 -0.3815,-0.0816 -0.5481,-0.102309 z m -2.3471,0.767371 c -0.1797,-0.0164 -0.3381,0 -0.443,0.0399 -0.1379,0.0555 -0.2222,0.129371 -0.2574,0.410192 -0.103,0.820949 -0.5985,1.30924 -1.0468,1.54909 -0.1395,0.0724 -0.1504,0.0412 -0.2735,0.0806 l 1.6745,1.373018 -0.2708,0.329171 0.073,0.0547 c 1.0764,-0.97155 1.5591,-2.360121 1.6592,-3.503401 -0.1744,-0.0785 -0.5527,-0.245449 -0.9244,-0.315558 -0.074,-0.0164 -0.124,-0.0164 -0.1852,-0.02191 z m 16.511,4.909709 c -0.8949,-0.110609 -1.8511,-0.104519 -2.8731,0.0342 -0.7284,2.39758 -1.9917,4.879671 -3.4165,7.220971 0.1599,-0.0301 0.3357,-0.0547 0.5287,-0.0784 0.5397,-0.0659 1.1971,-0.110611 1.9023,-0.12556 1.4104,-0.02612 3.0074,0.0507 4.2139,0.25917 2.9569,0.508378 4.894,2.574168 7.1237,4.198739 2.037,1.484169 4.2935,2.640901 7.8862,2.106401 -1.0959,-0.65463 -2.0938,-1.862522 -3.1598,-3.291002 -1.1488,-1.541108 -2.3662,-3.346399 -3.7771,-5.01555 -2.2031,-2.60749 -4.8387,-4.867148 -8.4283,-5.307129 z m -0.1957,7.841162 c -1.0871,-0.146391 -2.4451,-0.20602 -3.6502,-0.181602 -0.6889,0.0164 -1.3288,0.0526 -1.8375,0.120161 -0.5093,0.0628 -0.9026,0.174331 -1.0108,0.237479 l -0.039,-0.0525 c -0.041,0.06 -0.076,0.123269 -0.114,0.183859 l -0.039,0.0539 c 0.3358,0.999779 1.1805,2.052209 2.4332,3.07004 1.5015,1.22133 3.52,2.38542 5.673,3.388781 4.3047,2.00701 9.1853,3.366609 11.4874,3.378599 6.1554,-0.0164 10.77591,-1.13907 15.08111,-5.266398 -0.5961,0.157977 -1.02781,0.260588 -1.51381,0.420618 l -0.021,0.0164 h -0.023 c -1.1128,0.249571 -2.1179,0.105402 -3.0277,-0.325548 -0.69759,0.735481 -1.9198,1.218459 -3.2836,1.4171 -1.1668,0.16827 -2.4404,0.120909 -3.5745,-0.24326 -4.2769,0.90684 -6.9918,-0.406789 -9.2488,-2.051191 -2.2898,-1.668348 -4.1424,-3.623429 -6.8684,-4.090709 -0.1422,-0.0268 -0.293,-0.0464 -0.4477,-0.0647 z M 3.2179,-7.8000106 C 3.1602,0.44510039 2.53424,9.1719904 9.9999999e-6,15.615615 v 3.393074 C 9.41762,19.625507 11.60977,16.308674 35.24023,18.338446 27.29783,9.0172824 20.93943,1.2250584 15.25541,-7.8000106 Z m 28.65458,29.3382616 -0.19482,1.775603 10.18284,0.33228 -0.34778,3.167763 C 28.40931,26.916325 15.00377,27.210008 9.9999999e-6,25.984492 v 3.994071 C 15.52913,31.612656 30.64921,31.941427 46.67106,31.130947 c 0.6007,-1.401431 1.05999,-2.848924 1.36219,-4.344955 -1.65223,-0.0013 -3.30697,0.0069 -4.96455,0.01757 l 0.24546,-4.121195 z M 9.9999999e-6,30.336163 v 5.491655 C 14.36601,37.300028 28.40037,37.655398 43.14363,37.025676 c 1.3644,-1.755428 2.50105,-3.59824 3.36775,-5.530411 C 30.55194,32.294614 15.47747,31.962861 9.9999999e-6,30.336163 Z m 0,5.848739 v 6.245614 C 12.13552,43.645361 24.04564,44.063021 36.35903,43.763767 38.84333,41.780866 41.03809,39.660416 42.85269,37.394646 28.21802,38.006458 14.27147,37.645717 9.9999999e-6,36.184902 Z m 0,6.603214 v 5.865276 C 8.84305,49.617038 17.54471,50.157923 26.34465,50.304452 29.80575,48.416484 33.03222,46.36278 35.89342,44.13067 23.74648,44.407856 11.98244,43.986216 9.9999999e-6,42.788116 Z" />
  </g>
</svg>
